<svg version="1.1" id="Layer_1" xmlns="http://www.w3.org/2000/svg" x="0" y="0" viewBox="0 0 252 130" style="enable-background:new 0 0 252 130" xml:space="preserve"><style>.st0{fill:#fff}.st1{fill:#e73337}.st3{fill:#36499b}</style><g id="Banana_Split_Logo_1_"><path class="st0" d="M251 73.6c-1.6-3.9-3.1-7.8-4.4-11.5-1.9-5.2-6.7-8.5-12.2-8.5-1.5 0-3 .3-4.4.8-9.4 3.3-18 5.9-26.5 8.1-2.4.6-4.8 1.2-7.1 1.8l-.8.2c-.7-.8-1.3-1.6-2-2.4l-1.2-1.5c-.2-.2-.4-.5-.6-.7-.9-1.1-1.8-2.3-3.2-3.3-3-2.1-6.3-3.1-9.2-3.7.6-.6 1.1-1.3 1.6-2 1.4-2 2.9-4.5 3.2-7.5.2-2.9-1.2-5.3-3.8-6.4-.4-.2-.9-.4-1.4-.5.1-3.2-1.7-5.6-5.2-6.7-2.1-.6-4.3-.9-6.8-.7-.3 0-.7 0-1.1.1-.3-.8-.6-1.5-1-2.2-2.3-4-5.6-6.1-9.7-6.1h-1c-1.5-.7-2.9-1-4.3-1-1.2 0-2.4.3-3.5.8-.2-.2-.5-.4-.7-.5-2-1.4-4.3-2.4-7.1-3.2-.4-4-3-7-7.1-8.1-1.5-.4-2.9-.4-4.1-.1.8-.6 1.7-1.2 2.7-1.9 1.1-.6 1.7-1.7 1.7-2.8 0-1.1-.6-2.2-1.7-2.8-1.4-.8-3.2-.8-4.4.2-2.8 2.1-4.6 4.2-5.6 6.8-1 2.4-.8 4.8.4 6.9-.4-.1-.8-.1-1.2-.2-.5-.1-1-.1-1.5-.1-3.1 0-5.8 1.3-7.5 3.4h-.4c-.5 0-.9 0-1.3.1-2.2.3-4.4 1.1-6.4 2.3-.9-.3-1.7-.4-2.5-.5-3.3-.4-6.1.4-8.4 2.3-2.5 2.2-4 5-4.4 8.4 0 .2 0 .4-.1.7-1.4-.4-2.9-.7-4.6-.7h-.1c-2.4 0-4.6.7-6.5 2-2.8 1.9-3.8 4.7-3.1 8 .6 2.5 1.9 4.5 3.3 6.3.2.3.5.6.7.9.1.1.3.4.4.5 0 .4.1.8.1 1v.1c.2.8.4 1.5.7 2.2-.3.1-.6.1-1 .2-4.7 1-8.3 2.3-11.5 4.1-1.9 1.1-3.9 2.3-5.4 4.4l-1 1.4c-.7 1-1.4 2-2.1 2.9-.7-.2-1.3-.3-2-.5l-1.5-.3c-9.7-2.3-19.5-5.2-29.2-8.6-2-.7-4-1.4-6.3-1.4-.6 0-1.2.1-1.8.1-4.9.8-8.4 3.5-10.1 7.9-1.1 2.8-2.2 5.6-3.2 8.3-.5 1.4-1.1 2.8-1.6 4.1-.8 2-1 4.1-.7 6.2.9 5 3.9 8.6 8.6 10.4 9.2 3.4 19.2 6.5 30.8 9.5 4.7 1.2 9.8 2.4 16.2 3.8-.2 1.3-.3 2.7.1 4.1.9 3.3 3.1 5.6 6.6 6.9 1.7.6 3.3.9 4.9 1.1.4.1.9.1 1.4.2 2.9.5 5.8.9 8.7 1.3.2 0 .3.1.5.1v.1c-.4 1.8-.2 4.5 2.5 7 2.5 2.2 5.4 2.8 7.4 3 3.1.3 6.3.6 9.3.9 3.4.3 6.8.5 10.1.7 4.5.2 8.9.4 13.3.4h5.9c4.5 0 8.2-.1 11.8-.2 2.6-.1 5.2-.2 7.2-.3 2.6-.1 5.1-.3 7.4-.5 2.2-.1 3.9-.3 5.6-.4.9-.1 1.8-.2 2.8-.3l3.3-.3c2.5-.2 4.6-.9 6.4-2.2 2.5-1.8 3.7-4.1 3.5-6.8 0-.3-.1-.7-.1-1 1.1-.1 2.2-.3 3.3-.5 2.3-.3 4.9-.7 7.4-1.2.3-.1.6-.1 1-.1 1.3-.2 2.8-.4 4.2-1 4-1.7 6.5-5.3 6.4-9.3 0-.6-.1-1.1-.2-1.6 4.6-.9 9-1.9 13.3-3 10.1-2.5 19.7-5.3 28.8-8.5.5-.2 1-.3 1.5-.5 1.7-.6 3.5-1.1 5.2-2 5.6-3.8 8.2-10.8 5.6-16.9z"/><path class="st1" d="M69.1 59.8c.7 1.2 1.9 1.8 3.1 2.4 2.9 1.3 5.9 2 9 2.6 4.5.9 9.1 1.5 13.7 1.9 4.3.4 8.7.8 13 1 3 .1 6.1.5 9.1.8 4.1.5 8.3.7 12.5.5 3.3-.1 6.6-.3 9.9-.9 3.2-.5 6.4-.4 9.6-.6 3.6-.3 7.1-.5 10.7-.9 4-.4 8-.9 11.9-1.6 3.2-.6 6.4-1.3 9.4-2.5 1.2-.5 2.2-1.1 3.2-1.8.9.6 1.7 1.2 2.4 2 2.1 2.5 4.2 5.1 6.3 7.6.2.3.4.3.8.3 4.7-1 9.3-2.2 13.9-3.4 8.1-2.2 16.1-4.7 24.1-7.5 4-1.4 8 .5 9.5 4.4 1.5 3.9 2.9 7.8 4.5 11.6 1.4 3.4-.1 6.6-2.4 8.4-1.4 1.1-3 1.5-4.6 2.1-15.9 5.5-32.1 9.9-48.6 13-.4.1-.5.2-.4.6.3 1.5.5 2.9.9 4.4.4 1.8.1 3.3-1.4 4.5-.7.5-1.5.9-2.3 1-3.3.6-6.7 1.1-10 1.6-4.8.7-9.6 1.3-14.4 1.8-3.2.3-6.3.6-9.5.8-4 .3-8 .6-12 .7-4.6.2-9.2.3-13.8.3-4.2 0-8.5 0-12.7-.2-3.2-.1-6.4-.2-9.6-.5-2.3-.2-4.6-.3-6.9-.4-3.1-.3-6.1-.6-9.2-.9-3.2-.3-6.3-.7-9.5-1.1-4.3-.6-8.5-1.2-12.8-1.9-1.3-.2-2.5-.4-3.6-1.2-1.3-1-2-2.3-1.6-4.1.4-1.6.6-3.3 1-4.9.1-.4 0-.5-.4-.6-3.3-.6-6.5-1.3-9.8-2-12.4-2.7-24.6-6.1-36.6-10.3-1.8-.6-3.7-1.1-5.4-2-3.2-1.6-5.5-5.4-3.7-9.5 1.6-3.7 3-7.5 4.3-11.3 1.4-4 5.7-6 9.8-4.5 12.4 4.4 25.1 8 38 10.9.4.1.7 0 .9-.3 1.4-2 2.9-3.9 4.2-5.9 1.3-1.9 3.2-3.3 5.5-4.4zm86.3-33.5c1.6.7 3 1.7 4.2 2.8.1.1.3.2.3.4-.3.1-.5-.1-.7-.2-2.2-1.3-4.5-2.4-7.1-2.7-1.5-.2-2.9.1-4.2.7 0 .9.1 1.8-.2 2.7-.1.1-.1.3 0 .4.6 1.8 1 3.6 1.6 5.4.5 1.7 2 2.4 3.7 1.7.5-.2 1-.5 1.4-.8.7-.5 1.5-1 2.3-1.3 1.3-.5 2.6-.9 4-.6 1.2.3 2.4 1.3 2.6 2.2-.5-.1-.8-.7-1.3-.9.7 1.8.4 3.6 0 5.5.8-.3 1.5-.5 2.2-.8.2-.1.3-.2.2-.5-.1-.7-.1-1.4-.1-2.1-.3-2.8-.9-5.6-2.2-8.1-1.3-2.5-3.2-4.5-6.1-5.1-1.7-.4-3.4-.8-5-1.4-1.3-.4-2.7-.4-4 .2-.3.1-.4.3-.2.6s.4.7.6 1.1c2.8-.7 5.4-.4 8 .8zm-30.3-10.4c-2 .6-3.4 3.2-2.9 5.5.5 2.2 2 3.5 4 4.2 2.2.8 4.7.2 6.1-1.6 1.9-2.4 2.5-5.1 1.8-8-.7-2.7-3.5-4.4-5.6-3.9-1.8.5-3 1.6-4.2 3 .9.1 1.7.1 2.4.5-.5.1-1.1.1-1.6.3z"/><path d="M81.1 48.6c.8 1 1.8 1.9 2.8 2.7.1.1.3.3.5.2.2-.2-.1-.4-.2-.5l-1.3-1.3c-.7-.7-1.2-1.6-1.5-2.6-.2-.6-.4-1.1-.6-1.7.3 0 .3.2.3.3.8 1.6 2 2.7 3.4 3.8.1.1.2.3.4.1.2-.2 0-.3-.1-.4-.6-.6-1.2-1.3-1.8-1.9-.8-.8-1-2-1.4-3-.1-.2 0-.3.2-.4.6 1.9 2 3.2 3.5 4.4.1.1.2.2.3.2.1.1.2.2.3 0 .1-.1.1-.2-.1-.3l-1.1-1.1c-1-.9-1.7-2-2-3.4-.1-.5 0-.6.4-.8 1.4-.5 2.9-.5 4.3-.1 2.2.6 4.2 1.6 6.4 2.3.1 0 .2.1.3.2.2.6.7.8 1.1 1 5 2.8 10.3 5 15.8 6.5.3.1.6.2.8.5 2.8 3.1 7.3 3 10-.1 2-2.4 4.5-2.5 7-.5 1.4 1.2 2.5 2.6 3.4 4.2.1.2.1.5.4.4.2-.1.1-.4 0-.5-.2-.8-.6-1.6-1.1-2.5.5.2.8.4 1.2.5.8.3 1.6.4 2.3-.3.7-.7 1-1.6.7-2.6-.1-.3-.5-.6.1-.9.5-.3 1-.5 1.6 0 .8.7 1.8 1.1 2.8 1.4 1.3.3 2.5.2 3.6-.6.8-.6 1.6-1.3 2.3-1.9.1-.1.2-.2.4-.3 6.9-3 13.9-5.9 21.1-8 2.7-.8 5.5-1.5 8.4-1.4.8 0 1.5.3 2.2.6.3.1.4.2.1.5-1 1.1-2.3 1.5-3.7 1.9-.3.1-.7.2-1 .3-.1 0-.3.1-.3.2 0 .2.2.2.4.2 1.8-.3 3.7-.6 5.2-1.8.1-.1.2-.4.4-.2s-.1.3-.2.5c-1.3 1.4-2.9 2.1-4.7 2.5-.1 0-.3.1-.4.1-.1 0-.3.1-.2.2 0 .2.2.2.4.1 2-.3 3.9-.7 5.5-2.1h.1c0 .4-.1.7-.4 1-1.2 1.3-2.7 1.9-4.4 2.3-.2.1-.4.1-.6.2-.1 0-.4.1-.3.3 0 .2.2.1.4.1.8-.1 1.6-.2 2.4-.5.6-.2 1.3-.4 1.9-.7-.6 1-1.3 1.9-2 2.8-3.4 3.8-7.6 6.7-12.1 9.1-6 3.2-12.5 5.2-19.1 6.7-4.2.9-8.4 1.6-12.6 2.1-3.5.4-6.9.3-10.4.2-3.1-.1-6.1-.4-9.2-.8-8.5-1.2-16.5-3.9-23.6-8.8-2.6-1.7-5.1-3.6-7.1-6-.8-.8-1.3-1.6-1.6-2.6zm82.5 3.7c-.1 0-.2 0-.2.1l-.6.3c-2.4 1.4-4.8 2.7-7.4 3.7-7.1 2.9-14.5 4.4-22.2 4.8-5.5.2-11 .1-16.4-.7-5.6-.8-11-2.2-16.2-4.3-4.3-1.8-8.4-3.8-11.9-6.8-.2-.2-.5-.3-.7-.4-.2-.1-.4-.1-.6 0-.2.2-.1.4 0 .6.2.4.4.7.7.9 2.9 2.8 6.2 5.2 9.7 7.2 8.8 5 18.4 7.2 28.5 7.4 7.3.2 14.5-.8 21.6-2.6.9-.2 1.8-.4 2.7-.8-.4-.2-.6-.1-.8 0-5.8 1.6-11.7 2.6-17.8 2.8-6.8.3-13.5-.4-20.1-2.1-5.2-1.3-10.2-3.2-14.8-6-.2-.1-.7-.3-.6-.6.1-.3.6-.1.8 0 1.5.5 3 1.1 4.5 1.6 7.7 2.6 15.6 4.3 23.7 4.8 5 .3 9.9.1 14.8-.7 6.2-1 12.1-2.8 17.7-5.6 1.9-1.1 3.9-2.2 5.6-3.6zm-57.8-21.1c-1.1.7-2 .6-2.8-.1-.2-.1-.4-.3-.3-.5.1-.2.3 0 .5 0 1 .2 1.8-.1 2.5-.8 1-1 1.5-2.2 2-3.5 0-.1.1-.1.1-.2.1-2 .8-3.7 2.4-5.1-2.6.1-4.9.6-7.2 1.5 1 .2 1.9.2 2.8.6-2.6-.5-4 0-5.3.4-1 .4-1.9 1-2.7 1.7-.3.3-.7.4-1 0-.3-.4-.1-.7.3-1l.9-.6c.6-.3 1.2-.6 2-.9-1-.2-1.9-.1-2.7.1-3.6.9-5.8 3.4-7.1 6.7-.2.7-.2 1.2-.2 1.7 0 .6.2 1.1.8 1.3.6.2.9-.3 1.2-.8.7-1.4 1.7-2.5 3-3.2 1.5-.9 3-.7 4.3.3.7.6 1.3 1.4 1.7 2.2 1.3 2.2 3.3 2.6 5.3 1 .5-.4 1.1-.9 1.4-1.5.3-.5.8-1.1.5-1.8-.6.9-1.4 1.8-2.4 2.5zm-26.3 4.5s0 .1-.1.1c-.5.6-.7 1.3-.7 2 .1 1.6.8 3 1.6 4.3.2.3.2.2.5.1 1.3-.9 2.8-1.1 4.4-.9 2.1.2 4.2.9 6.1 1.7 1.3.6 2.6 1.1 4 1.5l-.3-.3c-2.5-1.9-3.9-4.4-4.1-7.6 0-.4-.2-.4-.5-.5-1.2-.4-2.5-.9-3.7-1.2-2.2-.5-4.4-.9-6.7-.3-1.7.4-3.1 1.3-3.6 3.2-.3 1.1-.1 2.2.4 3.3.5 1.3 1.3 2.5 2.2 3.6.2-.3.2-.6.4-.8.3-.4.3-.8 0-1.3-.7-1.2-1.3-2.4-1.6-3.8-.3-1.4.2-2.6 1.4-3.2.2.1.3 0 .3.1zm85.4-2.6c-.4.1-.4.2-.3.5.4 2.1.5 4.3.6 6.5 0 .5.1.5.6.4 2.1-.7 4.2-1.3 6.4-1.6 1.2-.2 2.2-.6 2.9-1.5.2-.2.3-.4.1-.6-.2-.2-.3.1-.4.1-1.4.9-2.9 1.3-4.5 1.4-.2 0-.5.2-.5-.1 0-.2.3-.2.4-.3.9-.3 1.9-.5 2.8-.9.7-.3 1.2-.8 1.7-1.3.1-.1.2-.2.1-.3-.1-.2-.3 0-.4 0-.1 0-.1.1-.2.1-1.4.8-2.9 1.2-4.5 1.4-.1 0-.3 0-.3-.1-.1-.2.1-.2.3-.3.1 0 .2-.1.3-.1 1-.3 2.1-.5 3-1 .4-.2 1.1-.5 1.1-1 0-.4-.6-.7-1.1-.9-1.3-.7-2.8-.8-4.3-.8-1.2 0-2.5.2-3.8.4zM98.5 46.8c.9.3 1.9.6 2.8.8 2.9.9 5.8 1.6 8.9 2.1.2 0 .4.1.4.4 0 .4 0 .9.2 1.4-4.4-1.1-8.4-2.7-12.3-4.7zm22.1 55.9c1.7 1.3 3.5 1.5 5.5.6.4-.2.6 0 .9.1 1.7.8 3.5.5 4.8-.8.4-.4.6-.3 1-.1 1.8 1.2 3.6 1.6 5.6.5.3-.1.4-.1.7 0 2.9 1.2 5.7-.4 6.4-3.4.2-1.1 0-1.9-1.1-2.5-1-.6-2-1.2-2.7-2.2-1.3-1.8-2.2-3.8-2.8-5.9-.6-2-1.2-4-1.2-6.2 0-.3-.1-.7-.4-.9-1.5-1.3-3-2.4-5.1-1.7-.2.1-.4 0-.7-.1-1.1-.8-1.8-.8-2.9 0-.3.2-.5.3-.8.2-.7-.2-1.4-.1-2.2 0-1.1.2-1.5.9-1.2 2 .2.7.3 1.4.1 2.2-.2 1-.4 2-.7 3-.6 2.5-1.2 4.9-2.1 7.3-.2.5-.4.9-.9 1.1-.4.2-.7.2-.6-.4.1-1.7.2-3.5.4-5.2.3-2.2.6-4.5 1.6-6.5.3-.6.2-1.1-.3-1.6-.4-.4-.8-.7-1.2-1.1-.9-1.1-2.1-1.2-3.4-.9-.4.1-.7 0-1-.2-.9-.7-1.6-.7-2.5-.1-.4.2-.7.3-1.2.2-.9-.1-1.9-.6-2.7.3-.1.1-.2 0-.3-.1-.7-.6-1.5-.6-2.3-.6-.5 0-.9-.1-1.3-.4-.7-.6-1.6-.6-2.4-.1-.3.2-.7.3-1 .2-1.1-.3-2.2-.2-3.3.2-1.1.4-1.4 1.2-.8 2.2.5.9.9 1.7 1.2 2.7.5 1.9.4 3.8.2 5.7-.1 1.2-.2 2.5-.4 3.7-.2 1-1 1.2-1.8 1.3-.5.1-.7-.5-.9-.9-.2-.2-.3-.5-.4-.7-.9-1.8-1.4-3.7-1.7-5.7-.3-2-.7-4-.4-6 .1-.8-.1-1.3-.6-1.8-.3-.2-.5-.4-.7-.7-1-1.1-2.2-1.4-3.6-1.2-.3 0-.6 0-.9-.3-.9-.9-1.7-1-2.7-.4-.3.2-.6.2-1 .1-.7-.2-1.5-.3-2.2-.2-.8.1-1.5.7-1.3 1.4.3 1.5-.2 2.8-.7 4.1-1.1 2.8-2.2 5.5-3.6 8.2-.2.4-.5.9-1 1.1-.6.2-.7.1-.6-.5.3-1.4.5-2.8.9-4.2.6-2.5 1.2-4.9 2.7-7.1.4-.5.3-1.1-.1-1.6L77.4 77c-.3-.3-.6-.5-1-.6-.6-.2-1.1-.2-1.7-.2-.4 0-.7-.1-1-.4-.7-.8-1.4-.9-2.4-.4-.4.2-.9.2-1.3.1-.3-.1-.5-.2-.8-.2-.6-.2-1.2-.3-1.8.1-.1.1-.2.1-.3 0-.6-.8-1.5-.8-2.4-.9-.4 0-.7-.1-1-.5-.7-.8-1.5-.9-2.5-.4-.3.2-.6.2-.9 0-1-.5-2.1-.5-3.2-.4-1.3.2-1.8 1-1.3 2.2.5 1.4.9 2.7.8 4.2 0 1.3-.3 2.7-.6 4-.3 1.3-.5 2.7-.9 4-.3 1-1.2 1-2 1-.5 0-.6-.6-.8-1-.1-.2-.2-.4-.3-.7-1.1-3.1-1.2-6.4-1-9.6 0-.7 0-1.5.3-2.1.4-.9.2-1.7-.5-2.4-.2-.2-.4-.5-.6-.7-.6-.8-1.4-1.2-2.4-1.4-.4-.1-.7-.1-1.1-.1-.2 0-.4-.1-.5-.3-.9-1.1-1.5-1.2-2.8-.7-.3.1-.5.1-.7 0-.6-.3-1.3-.5-2.1-.6-1.1-.1-1.8.4-1.8 1.5 0 .7 0 1.3-.3 1.9-1.6 3.1-3.3 6.2-5.4 9-.2.3-.4.6-.8.8 0-1.3-.3-2.5-.8-3.7-.1-.3.1-.4.3-.6 2.1-1.5 2.7-3.7 2.4-6.2-.3-2.2-1.6-3.9-3.3-5.2-2-1.5-4.2-2.3-6.6-2.8-.3-.1-.6-.2-.8-.5-.6-1-1.5-1.3-2.6-1-.4.1-.7 0-1-.1-1-.6-2.1-.8-3.3-.8-1 0-1.6.8-1.4 1.8.4 1.9.7 3.9.1 5.9-.6 1.9-1.3 3.8-2 5.7-.1.4-.4.7-.7 1-.3.3-.6.4-1 .3-.9-.2-1.4.2-1.7 1-.3.9-.4 1.7-.3 2.7.1 3.3 3.2 6 6.5 5.5.4-.1.7.1 1.1.3 3.4 2.7 7.1 3.6 11.3 2 .3-.1.4-.1.6.2 1.1 2.5 3 3.6 5.7 3.3.4 0 .6 0 .9.3 1.5 1.2 3.3 1.5 5 .5.4-.2.6-.1.9.2 1.3 1.6 3 2.5 5.1 2.1.4-.1.6 0 .9.2 1.6 1.2 3.5 1.4 5.1.4.4-.3.6-.2.9.2 1.4 1.6 3.1 2.2 5.2 2.2.5 0 .9 0 1.3.3 1.5.7 3 .9 4.5-.1.4-.3.6-.3.9.1.1.2.3.3.4.5.5.8 1.2 1.2 2.2 1.1 1.5 0 3-.1 4.4.7h.1c1.3.3 1.6.2 2.3-.9 1.6 1.6 3.5 2.2 5.6 1.5.3-.1.4.1.6.2 1.7 1.1 3.5 1.1 5.1-.1.3-.2.5-.2.7.1 1.6 1.5 3.5 2.1 5.7 1.3.3-.1.4.1.6.2 1.8 1 3.7.9 5.2-.3.3-.3.4-.2.7 0 1.6 1.4 3.4 1.9 5.4 1.5.5-.1.9-.1 1.4.1 1.6.5 3.1.5 4.4-.7.4-.4.6-.3.8 0 .9 1.2 2.1 1.5 3.5 1.2 1.1-.3 2.1-.3 3.2.1.2.1.3.1.5.1 1.2.2 1.6 0 2.2-1.1-.1-.3 0-.3.1-.2zM19.3 85.3c-.8-.5-1.5-1-2.2-1.7-.2-.2-.4-.3-.7-.2-3.2 1-6.3-1.8-5.7-5.1 0-.2 0-.3.1-.5.1-.5.2-.8.9-.7.7.1 1.3-.3 1.8-.8.3-.4.6-.8.8-1.3.7-2 1.5-4 2.1-6 .6-2 .5-4 0-6.1-.1-.4 0-.5.4-.5.8 0 1.6.2 2.2.6.6.4 1.1.5 1.8.2.5-.2 1-.1 1.3.4.3.6.8.8 1.5 1 2 .4 3.8 1 5.5 2.1 1.6 1 2.8 2.3 3.3 4.2.6 2.4-.1 5-2.7 6-.4.2-.3.3-.2.6.6 1.2 1.1 2.5 1.2 3.8 0 .5 0 1.1-.2 1.5-.2.3 0 .5.3.5 1.1.1 1.9-.2 2.6-1 .7-.8 1.2-1.6 1.8-2.5 1.4-2.2 2.8-4.6 4-6.9.5-.9.8-1.8.8-2.8 0-.4.2-.5.5-.4.5.1 1 .2 1.5.5s1.1.4 1.7 0c.5-.3 1-.2 1.3.4.3.6.9.8 1.5.8 1.7-.1 2.5 1 3.3 2.2.1.1.1.3 0 .4-.9 4.3-.7 8.6.5 12.8.5 1.7 1.7 2.8 2.8 4.2v-.3c.1-.7 0-1.3 1.1-1.3.8 0 1.2-.7 1.6-1.4.5-1.1.7-2.4 1-3.6.5-2.1.9-4.1.7-6.3-.1-1.1-.3-2.2-.8-3.2-.2-.6 0-.6.4-.7.8 0 1.5 0 2.2.3.6.3 1.3.4 1.9-.1.4-.3.8-.2 1 .2.5.7 1.1.8 1.9.8.7 0 1.2.3 1.7.8 1.2 1.2 1.4 2.7 1.8 4.2.1.4.2.9.4 1.3.2-1.3 0-2.5-.1-3.8 0-.5-.1-1-.2-1.4-.1-.4.1-.5.4-.4.3.1.7.2 1.1.3.7.2 1.3.3 2-.1.4-.3.8-.2 1.1.2.4.6 1.1.8 1.7.7 1.7-.3 2.3 1.1 3.2 2 .1.1.1.2 0 .3-1.7 2.8-2.4 5.9-3.1 9-.7 3.1-1.2 6.3-1.4 9.6-.8-.1-1.6-.4-2.3-.8-.3-.2-.6-.2-1-.2-.7.2-1.5.1-2.2.1-.4 0-.6-.2-.9-.5-1.4-1.2-1.4-2.8-1.6-4.3-.3-1.8-.7-3.6-1.3-5.4 0-.1-.1-.2-.2-.3-.3 1.3-.5 2.5-.5 3.9 0 .5.2.9.5 1.2.2.2.3.4.5.6.8 1 .9 1.3.3 2.4-.5 1-1.4 1.5-2.4 1.3-.8-.1-1.5-.4-2.1-.9-.2-.1-.3-.2-.6-.2-2.6.8-5.2-.9-5.7-3.6 0-.1-.1-.1-.1-.2-.2.3-.4.7-.6 1-1.3 1.8-3.8 1.7-5.1-.1-.2-.2-.2-.4-.5-.2-1.6.9-3.5.2-4.6-1.1-.6-.7-1-1.4-1.4-2.3-.3.9-.9 1.5-1.7 1.8-1.3.5-2.7 0-3.6-1.2-.2-.2-.2-.4-.6-.2-2.3 1-4.9-.5-5.3-3-.1-.6-.1-1.1-.1-1.7-2.6 3.1-7.3 2.9-10.3 1.1zm79.1 12.1c-.1-.6-.1-1.1.8-1.3 1.2-.3 1.6-1.4 1.7-2.5.2-2.1.4-4.1.4-6.2 0-2.2-.4-4.2-1.5-6.1-.3-.5-.1-.6.3-.7.8-.2 1.6-.2 2.4 0 .6.2 1.2.2 1.7-.3.4-.4.8-.3 1.1.1.5.5 1.1.7 1.9.5.7-.2 1.3 0 1.9.6 1 .9 1.7 1.9 2 3.1.2.7.5 1.3.9 2 0-1-.2-1.9-.4-2.9-.1-.7-.4-1.4-.5-2.2-.1-.3-.1-.6.4-.4.3.1.6.1.9.1.7.1 1.5.2 2.1-.4.3-.3.7-.3 1 0 .6.7 1.4.7 2.1.5.9-.2 1.6.1 2.3.7.7.7 1 1.2.5 2.2-.9 2.1-1.1 4.4-1.3 6.6-.4 3.7-.5 7.4-.2 11.1 0 .3 0 .4-.3.3-.1 0-.3-.1-.4-.1-.8 0-1.5-.7-2.2-.5-.8.2-1.5.4-2.3.4-.5 0-.9-.2-1.3-.5-1.2-.9-1.5-2.1-1.9-3.4-.5-2-1.3-3.9-2.2-5.7 0-.1-.1-.2-.2-.2 0 1.3-.2 2.7.1 4 .1.3.2.7.5.9.2.2.4.5.7.6.9.6 1 1.3.6 2.3-.4 1-1 1.6-2.1 1.7-.9.1-1.7-.1-2.4-.6-.2-.1-.4-.2-.6 0-2.3 1-5.2-.2-6-2.5-.1-.2 0-.4-.2-.4-.2.4-.3.8-.5 1.1-1.1 1.9-3.5 2.2-5 .6-.2-.2-.2-.4-.5-.1-1.5 1.2-3.6.6-4.8-.6-.6-.6-1.1-1.2-1.5-2-.4 1.3-1.1 2.1-2.3 2.3-1.2.2-2.1-.2-2.9-1-.1-.1-.2-.4-.5-.2-1.9 1.3-5 .6-5.8-2.5-.2-.7-.2-1.4-.2-2.1 0-.4.2-.5.5-.4 1.6.2 2.6-.6 3.3-1.9 1.7-3.3 3.1-6.8 4.3-10.3.2-.7.3-1.4.1-2.1-.1-.3 0-.5.4-.5.6 0 1.2.1 1.8.3.5.2.9.1 1.4-.2.7-.5.9-.5 1.5.2.3.4.7.6 1.3.5h.9c1.5-.2 2.2.9 3 1.7.1.1.1.2.1.4-.3 2.5.1 5 .6 7.4.2 1.1.5 2.2.9 3.3.7 2.3 2.1 4.2 4.2 5.6-.6 0-.6-.1-.6-.3zm28.2 4.2c-.2-.2-.3-.2-.5 0-1.8 1.6-5.3 1.1-6.3-2.3 0-.1-.1-.2-.1-.4-.1-.4-.3-.9-.1-1.3.2-.4.7-.2 1.1-.3 1.1-.3 1.7-1 2.1-2 .8-1.9 1.3-3.9 1.8-5.9.4-1.6.8-3.3 1.1-4.9.2-.9.1-1.9-.2-2.8.7-.3 1.5-.2 2.2 0 .6.1 1 0 1.4-.4.5-.5.9-.5 1.4 0 .5.5 1.1.5 1.7.3 1.6-.5 2.6.3 3.7 1.2.2.2.1.4.1.5.4 4.5 1.7 8.7 4.3 12.5.8 1.2 2 1.8 3.1 2.6.4.2.4.5.4.9-.2 1.2-.8 2.2-2 2.7s-2.3.3-3.2-.5c-.2-.2-.3-.2-.5 0-1 1.1-2.9 1.2-4.3.4-.9-.5-1.6-1.2-2.4-2.1-.1 2.7-3.1 3.4-4.8 1.8zm98.1-21.3c0 .5-.1.9-.7 1.1-.8.3-1 1-.7 1.8 1.6 4.4 6.8 5 9.5 3.3.6-.4 1.1-.6 1.8-.6 2.4-.1 4.2-2 4.2-4.4 0-1.8-.3-2.3-2-2.8-1-.3-1.6-.9-2-1.9-.3-.9-.6-1.9-1-2.8 0-.1-.2-.3-.1-.4.1-.2.3 0 .5 0 1.6.4 3.2.5 4.7 0 1.3-.5 1.7-1.6.8-2.6-.4-.5-.5-.9-.5-1.5.1-1.3-.2-2.5-1.2-3.4-.4-.3-.4-.7-.4-1.2.1-1.8-.5-2.5-2.1-3.2-1.7-.7-3.1-.8-4.5.6-.4.4-.8.4-1.4.3-1-.3-1.8-.1-2.4.8-.4.6-1 .9-1.8.6-1-.3-1.6-.1-2.3.8-.5.6-1 .8-1.8.6-.9-.3-1.7-.1-2.2.6-.5.7-1.2.8-2 .8h-1.2c-.8 0-1.2.3-1.4 1.1-.1.3-.2.4-.6.4-1-.2-2 0-2.9.5-.4.2-.8.2-1.2.1-.9-.3-1.7-.1-2.2.6-.3.4-.7.5-1.1.6-1.1.1-2 .5-2.8 1.2-1.1.8-1.1 1.6-.1 2.6 1.7 1.5 2.8 3.4 3.4 5.5.4 1.6.8 3.2 1.3 4.8.1.3.1.6.1.9-2.9-3.2-6.2-3.3-9.8-1.6-.1-.4-.2-.7-.2-1-.4-1.9-.7-3.9-.2-5.9.3-1.5.3-1.7-1-2.5-.1-.1-.3-.2-.4-.3-1.2-1-2.6-1-4-.4-.4.2-.8.2-1.2 0-.8-.4-1.6-.3-2.2.3-.4.5-.9.7-1.5.6-.2 0-.4 0-.6.1-1.3.4-2.8.7-3.1 2.4-.6-.2-1.3-.4-1.9-.5-2.3-.5-4.6-.3-6.8.3-.5.1-1 .2-1.5-.1-.8-.5-1.6-.3-2.3.3-.4.4-.7.5-1.2.4-1.2-.1-2.2.3-3.1 1-.4.3-.7.4-1.1 0-1-.8-2-.8-3.2-.2-1.1.6-2.4.8-3.7.2-.6-.3-1.4-.2-1.9.3-.4.3-.8.5-1.2.5-1.7.3-3.3 1-4.6 2.2-2.6 2.4-2.6 6.8-.1 9.6.2.2.5.4.6.7-.1.1-.2.1-.3.2-1.9 1.2-2.4 3.3-1.5 5.4.2.3.1.7.1 1-.1 1.3.3 2.4 1.4 3.2.8.5 1.6 1 2.5 1.5.7.4 1.2.4 1.8-.2.4-.4.9-.6 1.4-.6.7 0 1.4.1 2.2.2 4.2.7 7.7-.3 10.6-3.8.1.2.3.4.5.6 1.7 1.6 4.6 2 6.6.8.4-.2.8-.3 1.2-.2 2.7.4 4.7-.5 5.4-3.5.3-1.5.1-2.1-1.2-2.9-.5-.3-.9-.7-1.5-1.1 3.3-.8 5.9-2.5 7.3-5.6.2 1 .4 1.9.3 2.9 0 .4-.1.8-.6 1-1.1.4-1.3.9-1.1 2 1 4.1 5.8 6.1 9.4 3.9.3-.2.6-.3.9-.2 2.5.3 4.7-.2 6.9-1.5 1.1-.7 2.2-.9 3.5-.8h.9c.7 0 1.4-.5 1.5-1.2.1-.6.3-.4.7-.3 1.8.5 3.6.5 5.3-.5.5-.3.9-.4 1.5-.4 2.4 0 4.1-1.4 4.5-3.7.2-1.5-.2-2.5-1.6-3.2-.6-.3-1.1-.6-1.4-1.1-1-1.5-1.2-3.3-1.7-5 1.1.6 2.2 1 3.4 1.3.2.1.5-.1.7-.1 1-.3 1.9-.9 2.7-1.9-.2.7.3 1.6.2 2.6zm-67.2 13.6c.1.1.1.2.1.3.3 1.3 2 2 3.1 1.2.4-.3.4-.5 0-.8-.5-.4-1.2-.6-1.7-.9-1.8-.8-3.6-1.6-5.2-2.7-2.1-1.4-3.3-3.3-3.2-5.9.1-1.6.8-2.8 2-3.7 1.1-.8 2.3-1.2 3.6-1.4.6-.1 1.1-.2 1.5-.7.2-.2.4-.4.8-.2 1.6.9 3.2.5 4.8-.2.7-.3 1.2-.3 1.8.1.3.2.7.4 1 .6.7.5.9.8.5 1.6s-.3 1.5.2 2.3c.5.8.7 1.8.2 2.8-.4.7-.3 1.4.2 2.1.1.1.3.3.1.5-.1.1-.2.1-.4 0-2-.6-4.1-1.2-5.8-2.6-.4-.3-.7-.6-1.1-1-.5-.4-1-.7-1.6-.5-.3.1-.6.2-.7.6-.1.3.1.6.3.7.5.4 1.1.6 1.6.8 1.7.6 3.4 1.1 5 1.8.7.3 1.3.7 2 1.1 2.4 1.5 2.9 4.7 2.4 6.5-.5 1.5-1.6 2.5-2.9 3.2-2.2 1.2-4.6 1.4-7.1.9-1.5-.3-3-.4-4.2.7-.2.2-.3.1-.5 0-.7-.4-1.5-.9-2.2-1.3-.8-.5-1.1-1.5-.7-2.4.1-.4.1-.6-.1-.9-.7-1-.8-2-.2-3 .6-1 1.5-1.4 2.8-1.3 1.5-.1 2.5.9 3.6 1.7zm66.1-18.7c-.2.7-.6 1.3-1.1 1.8-.9.8-1.8 1.3-2.9.6-.1 0-.2-.1-.2-.1-1-.4-1-.4-.9-1.4 0-.7-.3-1.3-.8-1.8-.9-.8-1.1-1.8-.9-3 .1-.4 0-.8-.4-1.1-.4-.2-.5-.6-.6-1.1-.2-1 .1-1.3 1.1-1.2 1.3.1 2.4-.1 3.2-1.2.2-.4.6-.3.9-.2 1.3.4 2.5 0 3.2-1 .3-.4.6-.4 1-.3 1.3.3 2.4 0 3.2-1.1.3-.4.6-.5 1-.4 1.1.4 2 .1 2.8-.6.8-.8 1.6-.9 2.6-.4.1.1.2.1.4.1 1.1.4 1.5.9 1.2 2.1-.1.6 0 1.1.4 1.5.9.8 1.3 1.8 1.1 3.1-.1.8.1 1.5.7 2.1.4.3.3.5-.2.7-2.4.8-5.4-.2-6.9-2.2-.1-.1-.1-.3-.3-.3.4 1.8 1.1 3.5 1.6 5.3.3.8.6 1.7.9 2.5.5 1.3 1.4 2.1 2.8 2.4.7.2.9.7 1 1.3 0 2.5-2.1 3.5-3.8 3.2-.4-.1-.7 0-1 .3-2.3 2.2-7 1.1-8-1.9 0-.1-.2-.2.1-.4 1.5-.8 1.6-2.1 1.2-3.5-.5-2.1-1.2-4.1-2-6.1-.1.9-.1 1.6-.4 2.3zm-17.5 9.5c1.4 1.1 2.2 2.7 1.5 4-.5.9-.3 1.4.4 2 .3.2.4.6.6.8.1.1.2.3.1.5s-.3.2-.5.2c-.6-.1-1.1-.1-1.7-.1-1.1.1-2.1.5-3 1-2 1.3-4.2 1.7-6.5 1.3-.4-.1-.6 0-.9.2-2.7 2.1-6.9.7-7.7-2.7-.1-.2-.2-.4.1-.5 1.4-.5 1.6-1.6 1.6-2.8 0-1.4-.4-2.8-.7-4.2-.5-3-1.7-5.6-3.9-7.8-.2-.2-.2-.4.1-.5.7-.4 1.4-.7 2.2-.7.8 0 1.6-.1 2-.9.2-.4.6-.4.9-.2.8.5 1.5.3 2.2 0 1.3-.5 2.6-.2 3.5.9.1.1.1.2.1.3-.6 2.5-.3 5 .2 7.4l.9 3.9c.1.5.3.9.6 1.3.5.7 1.2.7 1.7 0 .4-.6.4-1.5-.1-2.3-.3-.5-.7-.8-1.2-1.2 2.7-1.5 5.5-1.4 7.5.1zm-34-7c.3-.4.7-.4 1.1-.1.6.4 1.2.4 1.8.2 1.9-.5 3.8-.9 5.7-.6 2.9.4 5.3 1.5 6.4 4.4.9 2.4 0 5.1-2.2 7-1.5 1.2-3.2 1.9-5.1 2.1-.5.1-.4.3-.4.6.1 1 .5 1.7 1.4 2.2.3.2.6.5 1 .7.6.3.6.7.5 1.3-.4 2.2-1.9 3.1-4.2 2.5-.6-.2-1-.2-1.5.3-1.5 1.2-4.3.7-5.6-.8-.6-.7-1-1.6-1.2-2.5 0-.1-.1-.3.1-.3 1.4-.5 1.7-1.7 1.6-3-.2-2.3-.5-4.7-1-7-.4-1.9-1.3-3.6-2.6-5-.4-.5-.2-.6.2-.8.7-.3 1.4-.5 2.2-.4.7 0 1.3-.2 1.8-.8zm34.8-6.6c.6 0 1.2-.3 1.5-.9.2-.4.6-.5 1.1-.3.6.3 1.2.3 1.8 0 1.5-.8 2.9-.6 4.2.4.2.1.3.2.2.4-.9 3.2-.3 6.2.7 9.3.4 1.1.6 2.2 1.1 3.2.5.9 1.1 1.7 2.1 2.2 1.1.5 1.4 1.2 1 2.4-.4 1.4-2.1 2.3-3.7 1.9-.4-.1-.6-.1-.9.2-1.9 1.8-6.8 1.4-7.9-2.1-.1-.3-.1-.4.2-.6.8-.3 1.1-1 1.2-1.8.1-.7.1-1.4-.1-2.1-.4-1.6-.9-3.3-1.3-4.9-.6-2.1-1.7-3.9-3.3-5.4-.2-.2-.5-.4-.7-.6.8-.8 1.7-1.2 2.8-1.3zM168.8 90c-.1-.1-.2-.3-.1-.5.2-.6 0-1.1-.3-1.6-.2-.2-.2-.5-.1-.8.6-1.4.4-2.8-.4-4.2-.2-.4-.2-.6.1-1 1.9 3.1 1.6 6.6 2.2 10-.4-.7-.8-1.3-1.4-1.9z" style="fill:#ffe550"/><path class="st0" d="M69.1 59.8c-2.2 1.1-4.1 2.5-5.5 4.6-1.3 2-2.8 3.9-4.2 5.9-.2.4-.5.4-.9.3-12.9-2.8-25.6-6.5-38-10.9-4-1.4-8.4.5-9.8 4.5-1.3 3.8-2.8 7.6-4.3 11.3-1.7 4.1.5 7.9 3.7 9.5 1.7.8 3.6 1.4 5.4 2 12 4.1 24.2 7.5 36.6 10.3 3.2.7 6.5 1.4 9.8 2 .4.1.5.2.4.6-.3 1.6-.6 3.3-1 4.9-.4 1.7.2 3 1.6 4.1 1 .8 2.3 1 3.6 1.2 4.3.7 8.5 1.4 12.8 1.9 3.2.4 6.3.8 9.5 1.1 3.1.3 6.1.6 9.2.9 2.3.2 4.6.3 6.9.4 3.2.2 6.4.4 9.6.5 4.2.1 8.5.2 12.7.2 4.6 0 9.2-.1 13.8-.3 4-.2 8-.4 12-.7 3.2-.2 6.3-.5 9.5-.8 4.8-.5 9.6-1.1 14.4-1.8 3.3-.5 6.7-1 10-1.6.9-.2 1.6-.5 2.3-1 1.5-1.2 1.9-2.7 1.4-4.5-.4-1.4-.6-2.9-.9-4.4-.1-.4 0-.6.4-.6 16.5-3.2 32.7-7.5 48.6-13 1.6-.6 3.2-1 4.6-2.1 2.3-1.8 3.8-5 2.4-8.4-1.6-3.8-3-7.8-4.5-11.6-1.5-4-5.5-5.8-9.5-4.4-7.9 2.8-15.9 5.3-24.1 7.5-4.6 1.2-9.2 2.4-13.9 3.4-.4.1-.6 0-.8-.3-2.1-2.5-4.2-5.1-6.3-7.6-.7-.8-1.5-1.4-2.4-2 0-.1.1-.2.1-.2.8-.9.8-.9 1.7-.2.9.7 1.6 1.6 2.3 2.5 1.6 2 3.3 4 4.9 6 .3.3.5.4.9.3 12.3-2.8 24.5-6.2 36.4-10.5 3.1-1.1 5.9-.9 8.7.9 1.3.9 2.3 2.1 2.9 3.7 1.6 4.2 3.3 8.4 4.9 12.6 1.3 3.4-.1 7.3-3.2 9.6-.9.6-1.8 1.1-2.8 1.4-14.4 5.1-29.1 9.2-44 12.4-1.8.4-3.5.7-5.3 1.1-.5.1-.7.2-.5.8.3 1.2.5 2.4.7 3.6.4 2-.3 3.6-1.8 4.9-1.3 1.1-2.8 1.5-4.4 1.8-4.9.8-9.8 1.5-14.7 2.2-1 .1-2.1.2-3.1.4 0 .3.3.3.4.4.7.6 1.2 1.3 1.3 2.3.1.6.1 1.2.2 1.8.3 1.6-.5 2.8-1.7 3.7-1.2.9-2.6 1.3-4 1.4-5.8.6-11.7 1.1-17.5 1.4-9.4.5-18.8.7-28.3.5-4-.1-8.1-.2-12.1-.5-4.5-.2-9.1-.6-13.6-1-2-.2-4.1-.3-6.1-.7-1.3-.3-2.5-.9-3.4-1.9-.7-.8-1.1-1.7-.9-2.7.1-.6.2-1.2.2-1.8.1-1.3.7-2.2 1.9-3-1.4-.2-2.6-.3-3.8-.5-4.9-.6-9.7-1.4-14.6-2.2-.4-.1-.9-.1-1.3-.2-3.5-1-5.1-3.5-4.4-7.2l.6-3c.1-.4-.1-.6-.5-.6C47.7 98 35.2 94.8 23 90.9c-4.1-1.3-8.2-2.6-12.3-4.1-3.3-1.2-5.4-3.5-6.1-7-.3-1.4-.1-2.8.4-4.1 1.6-4.1 3.1-8.2 4.7-12.3 1.7-4.4 6.4-6.6 11-5 7.9 2.8 15.9 5.3 24 7.5 4.3 1.2 8.7 2.2 13.1 3.2.5.1.8 0 1.1-.4 1.2-1.7 2.5-3.3 3.6-5.1 1.4-2.3 3.5-3.8 5.9-5l.8-.4c-.6.6-.2 1.1-.1 1.6zm57 65.2h2c6.5 0 12.9-.2 19.4-.6 5.3-.3 10.7-.8 16-1.3 1.5-.1 3-.4 4.2-1.4.9-.7 1.5-1.7 1.3-2.9-.1-.6-.2-1.3-.2-1.9-.1-.9-.6-1.5-1.3-2-.9-.6-1.9-.9-3-.9-1.8 0-3.6.3-5.4.4-4.5.4-8.9.7-13.4 1-3.9.2-7.8.4-11.7.5-6.6.2-13.2.1-19.8-.1-4.7-.1-9.4-.4-14-.8-3.3-.2-6.5-.6-9.8-.9-1.5-.1-3-.3-4.4.1-1.6.5-2.4 1.5-2.6 3.1-.1.5-.1 1-.2 1.4-.2 1.2.3 2.1 1.2 2.8.9.8 2 1.2 3.2 1.3 5.7.6 11.4 1.1 17.1 1.4 7 .6 14.2.8 21.4.8zm-2.5-75.1c.3-.5.6-.8.8-1.2.1-.2.2-.3-.1-.4-.2-.1-.3 0-.4.2-1.1 1.7-3 2.6-4.6 3.8-1.2.9-2.5 1.1-4 .5-.3-.2-.7-.3-.8-.7 2.4-1 4.3-2.8 6.3-4.4.1-.1.3-.2.1-.4-.2-.2-.3-.1-.5.1-1.1.8-2.3 1.7-3.4 2.5-.7.5-1.5.9-2.3 1.2-.3-.7-.1-1 .6-1.3 1.7-.7 2.9-2 4-3.4.3-.3.5-.5.9-.6 3.7-1.1 7.3-2.7 10.6-4.7.4-.2.6-.2.9.1 2 2.2 5.4 1.9 7.1-.7 1.2-1.7 1.4-3.7 1.4-5.7 0-.8 0-1.7.4-2.4.4-1.1 1.2-1.4 2.3-1.1.5.2.9.4 1.4.6.2.1.2.2.3.4 2 4.9-.3 12.1-6.4 13.6-1.6.4-3.3.3-4.9-.1-.1 0-.4-.3-.5 0-.1.2.1.3.2.4.4.4 0 .5-.2.6-.6.3-1.4.3-2 .4-.5.1-.9.2-1.3.5-.1.1-.2.2-.2.3 0 .1.1.1.2.1 1.8-.5 3.7.1 5.6-.1 1.7-.1 3.3-.5 4.9-1.2 1-.4 2-.7 3-.4s1.7 1.4 1.4 2.5c-.3.9-1.2 1.4-2.3 1.1-.9-.3-1.7-.5-2.7-.6-2.1-.3-4.1.6-4.9 2.6-.3.8-.9 1.1-1.7 1.2-1.2 0-2.2-.1-3.2-1-1.3-1.3-3-2.2-5-2.2-.2-.2-.6-.2-1-.1zm-1.5-1.1c0-.1 0-.2-.1-.2-.2-.1-.3.1-.5.2-1.2 1.1-2.5 2.1-4 2.8-.2.1-.5.2-.3.5.1.2.4.1.6 0 1.6-.7 2.9-1.7 4.2-2.9 0-.2.1-.3.1-.4zm-16.4 17.6c-.5-.1-.9-.3-1.4-.4-1.5-.4-2.9-1.1-4.5-1.3-4.2-.7-8.5-1.2-12.7-2.1-2.5-.5-5-1.1-7.4-2.1-.7-.3-1.5-.6-1.5-1.5s.9-1.1 1.6-1.4h.1c-.3.7.2 1.2.7 1.6.9.8 2.1 1.2 3.2 1.6 4.2 1.5 8.5 2.4 12.9 3.2.7.1 1.4.3 2.1.2-.6-.3-1.3-.6-2-.9-5.1-2.3-10.1-4.8-14.2-8.8-.2-.2-.4-.2-.6-.1-1.6.3-3.2.7-4.8 1.2-1.4.4-2.9.9-4.1 1.8-1.1.8-1.1 1.7 0 2.5 1 .7 2 1.2 3.2 1.6 4.5 1.6 9.2 2.4 14 3.2 3.6.6 7.2 1 10.8 1.4 1.6.1 3.1.3 4.6.3 0 .1 0 .1 0 0zm46.5-.3c6.1-.6 12.2-1.4 18.2-2.7 3-.6 6-1.3 8.9-2.6.7-.3 1.3-.6 1.8-1.1.9-.8.9-1.5 0-2.3-.3-.3-.7-.5-1.1-.7-2-1-4.1-1.5-6.3-2-.3-.1-.4.1-.6.2-4 3-8.5 5.4-13.1 7.4-1.5.7-3.1 1.3-4.7 1.9l2.4-.3c4.1-.8 8.2-1.6 12.1-2.9 1.4-.5 2.7-1 3.9-1.9.6-.4 1-.9.7-1.8.5.2.9.4 1.3.6.8.5.8 1.1 0 1.7-.7.6-1.6.9-2.4 1.2-4.9 1.6-10 2.5-15.1 3.1-3.5.4-6.8 1.4-10.1 2.4 1.5.1 2.8 0 4.1-.2zm-5.6-20.2c3.6-1.2 6.7-3.1 9.6-5.5.2-.2.4-.6.6-.3.3.3-.2.5-.4.6-1 1.1-2.1 2-3.3 2.8-2.1 1.4-4.2 2.9-6.7 3.4-.2.1-.4.1-.3.4.1.3.1.5.5.5.3-.1.6-.1 1-.2 3.6-1.2 6.7-3.1 9.6-5.5.2-.1.4-.6.6-.3.3.3-.2.5-.4.6l-1.5 1.5c1.7-.6 3.4-1.2 5.1-1.9.2-.1.3-.2.3-.4.1-1.7.1-3.3-.4-5-.4-1.1-.6-1.2-1.7-1-.4.1-.8.2-1.2.4-.9.4-1.7 1.1-2.5 1.8-1 .9-2 1.7-3.4 1.9-.4.1-.7.2-1 .5-1.1.9-2.3 1.8-3.6 2.6-.9.5-1.9 1-3 .9-.7 0-1 .4-1.3.9.5.1.9 0 1.3-.1s.7-.1 1-.2c3.6-1.2 6.8-3.1 9.6-5.5.1-.1.3-.5.5-.2.2.2-.1.4-.2.6-1.1 1.1-2.2 2.1-3.5 2.9-2.1 1.4-4.1 2.8-6.6 3.4.3.8.8.5 1.3.4zm-33.3-2.1c2.2.1 4.3-.4 6.4-1.1 3.5-1.1 6.9-2.5 10.1-4.4.2-.1.5-.2.4-.5-.1-.4-.1-.8-.4-1.1-.2.1-.3.2-.4.3-5.4 3.2-10.8 6.2-17.3 6.3.3.3.7.5 1.2.5zm4 1.3c2.7-.3 5.3-1.2 7.9-2.2 1.8-.7 3.6-1.5 5.4-2.4.2-.1.5-.1.4-.5-.2-.4-.4-.8-.5-1.2-5.1 3-10.2 5.7-16.2 6.2 1 .3 2 .2 3 .1zM94.1 39c.2 0 .3-.1.4-.1 4.1-.9 8-2.2 11.6-4.5.8-.5 1.2-1.1 1.1-2-4.5 2.5-9 5-14.1 5.9.2.9.2.9 1 .7zm34.4-2.1c1.3-.8 1.3-.8.4-2.1-.3-.4-.6-.5-1-.1-1.6 1.2-3.3 2.2-5 3.1-.2.1-.4.3-.6.5-.3.7-.7 1.3-1.3 2 2.7-1 5.1-2.1 7.5-3.4zm19.5-9.5c1.3-.6 2.7-.9 4.2-.7 2.6.3 4.9 1.3 7.1 2.7.2.1.4.4.7.2 0-.2-.1-.3-.3-.4-1.3-1.2-2.7-2.1-4.2-2.8-2.6-1.2-5.3-1.5-8-.7.1.5.3 1.1.5 1.7zM94.5 42c.1.6.5.7.9.6.5-.1 1-.1 1.6-.2 3.3-.7 6.2-2.3 9.1-3.9.8-.4 1.5-.9.9-2-3.9 2.4-7.7 5-12.5 5.5zm-.9-1.8c.3.3.1.8.7.7 4.2-.9 8.3-2.2 11.9-4.7.6-.4.9-.8.7-1.6-4.1 2.5-8.2 5.3-13.3 5.6zm1.9 3.4c.3.5.5 1 1.2.7.3-.1.6-.1.9-.1 1.7 0 3.3-.5 4.8-1.4 1-.6 2-1.1 2-2.4-2.8 1.4-5.5 3.1-8.9 3.2zm5-9.6c-2.2 1.1-4.6 2.1-7.1 2.3-.5 0-.4.3-.4.6 0 .5.3.2.5.2 2.1-.3 4.2-.9 6.3-1.7 1.1-.4 2.3-.9 3.3-1.4-.9-.7-1.6-.5-2.6 0zm7.4-7.9c0 .1-.1.1-.1.2-.5 1.3-1 2.5-2 3.5-.7.7-1.5.9-2.5.8-.2 0-.4-.2-.5 0-.1.2.1.4.3.5.7.7 1.7.7 2.8.1 1-.6 1.8-1.5 2.5-2.5-.2-.9-.4-1.7-.5-2.6zm13.6-3.1c-.7-1.7-1-1.9-2.8-1.4-.2 0-.3.1-.5.1-2 .7-3.3 2.2-4.2 4.2 2.1-2.2 4.2-4.1 7.5-2.9zm-20.4 9.8c-.7-.9-.7-.9-1.7-.5-1.7.7-3.5 1.4-5.3 1.8-.5.1-.6.4-.7.9 1.4.1 6.6-1.5 7.7-2.2zm21.8 4.2c1.7-.9 3.4-1.9 5-2.9-2.4-1.7-4.7.7-5 2.9zm-5.5 9.1c-.3 0-.7-.1-.9.2-.9.9-2 1.7-3.2 2.3.3.2.4.6.9.5 1.8-.5 3.3-1.6 4.6-3.1-.6 0-1 0-1.4.1zM99.1 31.4c.2-.1.6 0 .6-.3s-.3-.4-.6-.6c-.3-.1-.5-.1-.8-.1-1.7.2-2.9 1.1-3.9 2.6 1.6-.5 3.2-1.1 4.7-1.6zm11.2 13.2c-.8.6-1.6 1.2-2.6 1.6.7.2 1.1.6 1.7.3 1.1-.5 2-1.2 2.9-2-1-.7-1-.7-2 .1zm40.4-4.8c-.5-.6-.9-.5-1.4-.1-.9.9-1.9 1.7-3.2 1.9-.8.2-1.2.6-1.6 1.4 2.4-.5 4.3-1.9 6.2-3.2zm-4.2-.1c-.7.3-.9.8-1 1.5 1.1-.3 2-.9 2.9-1.5 1-.8 1-.8.3-2-.6.7-1.2 1.6-2.2 2zm-46.9 6c1.4 0 2.5-.6 3.5-1.4.5-.3.6-.7.3-1.2-1.6 1.1-3.3 2-5.3 2.3.5.3 1 .3 1.5.3zm48.7-8.2c.3-.3.3-.5.1-.9-.2-.3-.3-.7-.8-.7s-.6.3-.8.6c-.4.8-.5 1.8-.8 2.8 1-.5 1.6-1.2 2.3-1.8zm-35.2.8c.7-.2.2-.5.2-.8 0-.5-.3-.3-.5-.2-1 .4-2.1.7-3.2.9-.4 0-.3.2-.2.4 0 .2 0 .5.3.5 1.2-.3 2.3-.5 3.4-.8zm-2.6 2.6c1.4-.3 2.8-.6 4.4-.9-.5-.2-.5-.9-1.1-.7-1.3.5-2.5.8-3.9.9.2.3.1.8.6.7zm5.3.1c-1.6.5-3.2.8-4.9.9 2.2.5 4.3.1 6.4-.5-.5 0-.9-.5-1.5-.4zm-8.3 4.3c1.1-.2 1.9-.9 2.8-1.6.1-.1.6-.2.2-.5-.3-.2-.4-.7-.9-.2-.8.8-1.7 1.4-2.7 1.9-.1.1-.3.1-.2.3.1.2.2.3.3.3.2-.1.4-.1.5-.2zm4.5 1.6c.7-.4 1.3-.9 2-1.5-.3-.2-.7-.3-1-.5-.2-.1-.3-.1-.5.1-.7.7-1.5 1.4-2.3 1.9.7.7 1.3.4 1.8 0zm-1.6-10.8c-.3.2-.7.4-1 .6-.2.1-.3.3-.2.5.1.2.3 0 .4 0 .8-.3 1.6-.5 2.4-.8 1.1-.4 1.1-.4 1-1.6-.9.3-1.7.8-2.6 1.3zm2.3-2.6c.7-.3.7-.5.3-1.3-1.1.8-2.2 1.6-3.4 2.4-.1 0-.1.1-.2.2-.3.2-.2.5-.2.8 1.2-.7 2.3-1.4 3.5-2.1zm-3.7 8.1c-.2-.2-.2-.5-.6-.3-.3.2-.2.5 0 .7.3.4.1.6-.3.8-.2.1-.5.1-.8.1-.4.1-.7.2-.9.6-.1.2-.2.4-.1.6.1.2.3.1.5 0 1-.4 1.9-1 2.7-1.7-.1-.4-.3-.6-.5-.8zm4.6 4.9c-.2.2-.5.4-.7.6-.3.2-.7.4-.9.8 1.5-.1 2.6-.8 3.6-1.7-1.2-.4-1.2-.4-2 .3zm-7.9 1h.3c-.7-.5-1-1.2-1.3-1.9-.3.2-.5.4-.7.6-.2.2-.5.4-.9.7.9.2 1.8.4 2.6.6zm-1.3-2.4c.1-.2.1-.3 0-.4-.1-.1-.3-.1-.4 0-.8.6-1.8 1.1-2.8 1.6.9.3 2.8-.5 3.2-1.2zm5.2-11.6c.8-.7 1.7-1.3 2.6-2-1.3-.4-2.3.4-2.6 2zM108 40c-.2-.6-.3-1.4-.6-1.5-.5-.1-.9.5-1.4.8-.1 0-.1.1-.4.3.9-.1 1.6.2 2.4.4z"/><path class="st3" d="M248.9 74.5c-1.6-3.8-3-7.7-4.5-11.6-2-5.5-8.1-8.3-13.7-6.3-8.8 3.1-17.6 5.8-26.7 8.2-3 .8-5.9 1.5-8.9 2.2-.3.1-.6.1-.9-.2-1.3-1.6-2.6-3.2-3.9-4.7-1-1.2-1.9-2.6-3.3-3.5-2.6-1.8-5.7-2.8-8.8-3.5-1.3-.3-2.6-.5-3.9-.8.1-.2.3-.3.4-.5 1.5-1.3 2.9-2.7 4.1-4.3 1.4-1.9 2.5-3.9 2.7-6.3.1-1.8-.7-3.3-2.4-4.1-.8-.4-1.7-.5-2.6-.6-.5 0-.6-.1-.4-.6.8-3-.3-4.9-3.3-5.8-1.9-.6-4-.7-6-.6-.8 0-1.6.1-2.4.2-.4 0-.6-.1-.7-.5-.3-1.1-.7-2.1-1.3-3.1-1.9-3.3-4.5-5.2-8.4-4.9-.4 0-.8-.1-1.3-.2-2.3-1-4.6-1.2-6.8.4-.2.2-.4.1-.6-.1-.5-.5-1-.9-1.5-1.3-2.2-1.6-4.8-2.5-7.4-3.1-.4-.1-.6-.2-.6-.8 0-3.6-2-6.2-5.4-7.1-2.9-.8-5.1.3-6.2 3.1-.1.3-.2.7-.4 1.1-1.4-1.3-1.9-3.1-1.1-4.9.5-1.3 1.4-2.3 2.4-3.2 1-.9 2.2-1.7 3.4-2.4.8-.5.7-1.2 0-1.6-.6-.4-1.3-.4-1.9 0-2.1 1.5-3.8 3.3-4.8 5.8-.7 1.8-.6 3.6.6 5.3.3.5.7.9 1.1 1.4-1 .4-1.8.9-2.3 1.8-.1.1-.2.3-.4.2-.7-.3-1.4-.4-2.1-.5-2.6-.4-5.7.5-7.2 3-.2.3-.4.4-.7.3-.7 0-1.5-.1-2.2 0-2.1.3-4 1-5.8 2.2-.3.2-.7.3-1.1.2-.8-.3-1.7-.5-2.6-.6-2.4-.3-4.7.1-6.6 1.8-2.1 1.8-3.3 4.1-3.6 6.9-.2 2 .5 3 2.5 3.2-.1.6-.2 1.2-.3 1.9-.3-.2-.5-.3-.7-.4-2.6-1.5-5.3-2.7-8.4-2.6-1.9 0-3.6.5-5.2 1.6-2 1.4-2.7 3.2-2.1 5.5.5 2.1 1.6 3.8 2.9 5.5.6.8 1.6 1.5 1.6 2.7 0 .2.1.4.1.6.3 1.6 1.2 3 2.2 4.4-1.5.3-2.9.5-4.3.8-3.8.8-7.5 1.9-10.8 3.8-1.7 1-3.4 2-4.6 3.7-1.2 1.7-2.5 3.5-3.7 5.2-.2.3-.4.4-.8.3-1.5-.4-3-.7-4.5-1.1-10-2.4-19.8-5.3-29.4-8.7-2.2-.8-4.5-1.5-6.9-1.1-4 .6-6.8 2.7-8.3 6.5-2 4-3.6 8.2-5.2 12.4-.6 1.6-.8 3.2-.5 4.9.7 4.2 3.2 7.1 7.1 8.6 10 3.7 20.2 6.7 30.5 9.4 5.6 1.4 11.3 2.7 17 3.9 1.4.3 1.4.3 1.1 1.8-.3 1.3-.5 2.5-.1 3.8.8 2.7 2.6 4.4 5.1 5.4 1.9.7 3.9.8 5.8 1.2 3.7.6 7.4 1.1 11.1 1.6.3 0 .4.2.3.4-.1.7-.1 1.5-.3 2.2-.4 2 .4 3.5 1.8 4.8 1.7 1.5 3.8 2.1 6.1 2.4l9.3.9c3.3.3 6.6.5 10 .6 4.4.2 8.8.4 13.2.4 5.9 0 11.7.1 17.6-.1 2.4-.1 4.7-.2 7.1-.3 2.5-.1 4.9-.3 7.4-.5 1.8-.1 3.7-.3 5.5-.4 2-.2 4-.4 6.1-.6 1.9-.2 3.6-.7 5.2-1.8 1.6-1.2 2.7-2.6 2.6-4.7-.1-.9-.2-1.7-.4-2.6-.1-.4-.1-.6.5-.7 1.7-.2 3.4-.4 5.1-.7 2.4-.4 4.9-.7 7.3-1.2 1.6-.3 3.2-.4 4.7-1 3.1-1.3 5-4.1 4.9-7.1 0-1-.3-1.9-.5-2.8-.1-.4-.1-.7.5-.8 5-1 9.9-2.1 14.9-3.3 9.6-2.4 19.2-5.2 28.6-8.4 2.1-.7 4.3-1.3 6.3-2.4 4.5-2.6 7.2-8.1 5-13.5zM180 56.8c.4.2.8.4 1.1.7.9.7.9 1.5 0 2.3-.5.5-1.2.8-1.8 1.1-2.8 1.3-5.8 2-8.9 2.6-6 1.2-12.1 2-18.2 2.7-1.3.1-2.6.3-3.9.4 3.3-1 6.6-2 10.1-2.4 5.1-.7 10.2-1.5 15.1-3.1.9-.3 1.7-.6 2.4-1.2s.7-1.1 0-1.7c-.4-.3-.8-.5-1.3-.6.3.8-.1 1.3-.7 1.8-1.2.9-2.5 1.4-3.9 1.9-4 1.3-8 2.1-12.1 2.9-.8.2-1.6.3-2.4.3 1.6-.6 3.1-1.2 4.7-1.9 4.6-2 9-4.4 13.1-7.4.2-.1.3-.3.6-.2 2 .3 4.1.8 6.1 1.8zm-15.1-23.7c1.3-.2 2.6-.4 3.9-.4 1.5 0 3 .1 4.3.8.4.2 1.1.5 1.1.9s-.6.7-1.1 1c-.9.5-2 .7-3 1-.1 0-.2 0-.3.1-.1 0-.4 0-.3.3.1.1.2.1.3.1 1.6-.2 3.1-.5 4.5-1.4.1 0 .1-.1.2-.1s.2-.3.4 0c.1.2 0 .2-.1.3-.5.5-1.1 1-1.7 1.3-.9.4-1.9.6-2.8.9-.2 0-.5 0-.4.3 0 .3.3.1.5.1 1.6-.2 3.1-.6 4.5-1.4.1-.1.2-.3.4-.1.2.2 0 .4-.1.6-.8.9-1.8 1.3-2.9 1.5-2.2.3-4.3 1-6.4 1.6-.5.1-.6.1-.6-.4 0-2.2-.1-4.3-.6-6.5-.2-.3-.2-.4.2-.5zM147 23.9c1.3-.7 2.7-.7 4-.2 1.7.5 3.3 1 5 1.4 2.9.6 4.8 2.6 6.1 5.1 1.3 2.5 2 5.3 2.2 8.1.1.7.1 1.4.1 2.1 0 .2 0 .4-.2.5-.7.2-1.4.5-2.2.8.4-1.9.7-3.6 0-5.5.6.2.8.8 1.3.9-.2-.9-1.4-1.9-2.6-2.2-1.4-.3-2.7 0-4 .6-.8.3-1.6.8-2.3 1.3-.4.3-.9.6-1.4.8-1.7.7-3.2.1-3.7-1.7-.6-1.8-1-3.6-1.6-5.4v-.4c.3-.9.3-1.8.2-2.7l-.6-1.8c-.2-.4-.4-.7-.6-1.1-.1-.3 0-.4.3-.6zm10.8 17.9c-.2-.2-.4.2-.6.3-2.9 2.4-6 4.3-9.6 5.5-.3.1-.6.2-1 .2-.4.1-.4-.2-.5-.5-.1-.3.1-.3.3-.4 2.5-.5 4.6-2 6.7-3.4 1.2-.8 2.3-1.7 3.3-2.8.2-.2.6-.3.4-.6-.2-.2-.4.2-.6.3-2.9 2.4-6 4.3-9.6 5.5-.5.2-1 .4-1.3-.4 2.4-.6 4.5-2 6.6-3.4 1.3-.8 2.4-1.8 3.5-2.9.1-.1.5-.3.2-.6-.2-.2-.4.1-.5.2-2.9 2.4-6 4.3-9.6 5.5-.3.1-.7.2-1 .2-.4.1-.8.2-1.3.1.3-.5.6-.9 1.3-.9 1.1 0 2.1-.4 3-.9 1.3-.7 2.4-1.6 3.6-2.6.3-.3.6-.4 1-.5 1.3-.2 2.4-1 3.4-1.9.7-.7 1.5-1.4 2.5-1.8.4-.2.8-.3 1.2-.4 1.2-.2 1.3-.1 1.7 1 .5 1.6.5 3.3.4 5 0 .2-.1.3-.3.4-1.7.7-3.4 1.3-5.1 1.9.5-.5 1.1-1 1.5-1.5.3-.2.7-.3.4-.6zM144.5 43c.3-.8.7-1.2 1.6-1.4 1.3-.2 2.3-1.1 3.2-1.9.5-.5.9-.5 1.4.1-1.9 1.3-3.8 2.7-6.2 3.2zm2.4-6.5c.2-.3.3-.6.8-.6.4 0 .6.4.8.7.2.3.1.6-.1.9-.6.7-1.2 1.3-2.1 1.8.1-1 .1-2 .6-2.8zm-.4 3.2c.9-.4 1.5-1.2 2.2-2 .7 1.2.7 1.2-.3 2-.9.6-1.8 1.2-2.9 1.5.2-.7.3-1.2 1-1.5zm-7.6.7c1.2-1.7 1.4-3.7 1.4-5.7 0-.8 0-1.7.4-2.4.4-1.1 1.2-1.4 2.3-1.1.5.2.9.4 1.4.6.2.1.2.2.3.4 2 4.9-.3 12.1-6.4 13.6-1.6.4-3.3.3-4.9-.1-.1 0-.4-.3-.5 0-.1.2.1.3.2.4.4.4 0 .5-.2.6-.6.3-1.4.3-2 .4-.5.1-.9.2-1.3.5-.1.1-.2.2-.2.3 0 .1.1.1.2.1 1.8-.5 3.7.1 5.6-.1 1.7-.1 3.3-.5 4.9-1.2 1-.4 2-.7 3-.4s1.7 1.4 1.4 2.5c-.3.9-1.2 1.4-2.3 1.1-.9-.3-1.7-.5-2.7-.6-2.1-.3-4.1.6-4.9 2.6-.3.8-.9 1.1-1.7 1.2-1.2 0-2.2-.1-3.2-1-1.3-1.3-3-2.2-5-2.2-.3 0-.7.1-1.1.1.3-.5.6-.8.8-1.2.1-.2.2-.3-.1-.4-.2-.1-.3 0-.4.2-1.1 1.7-3 2.6-4.6 3.8-1.2.9-2.5 1.1-4 .5-.3-.2-.7-.3-.8-.7 2.4-1 4.3-2.8 6.3-4.4.1-.1.3-.2.1-.4-.2-.2-.3-.1-.5.1-1.1.8-2.3 1.7-3.4 2.5-.7.5-1.5.9-2.3 1.2-.3-.7-.1-1 .6-1.3 1.7-.7 2.9-2 4-3.4.3-.3.5-.5.9-.6 3.7-1.1 7.3-2.7 10.6-4.7.4-.2.6-.2.9.1 2 2 5.5 1.6 7.2-.9zm-39.5-8c1-.4 1-.4 1.7.5-1.1.6-6.3 2.3-7.7 2.2.1-.4.2-.8.7-.9 1.8-.4 3.6-1.1 5.3-1.8zm-5.1.6c1-1.5 2.3-2.4 3.9-2.6.3 0 .6 0 .8.1.3.1.6.3.6.6s-.4.3-.6.3c-1.4.5-3 1.1-4.7 1.6zm-.9 3.3c2.5-.3 4.8-1.3 7.1-2.3 1-.5 1.7-.6 2.6 0-1.1.6-2.2 1-3.3 1.4-2 .8-4.1 1.4-6.3 1.7-.2 0-.5.3-.5-.2 0-.3-.1-.6.4-.6zm13.9-3.9c.1.9-.3 1.5-1.1 2-3.6 2.2-7.5 3.6-11.6 4.5-.1 0-.3.1-.4.1-.8.2-.8.2-1-.6 5.1-.9 9.6-3.4 14.1-6zm1.1 9.6c-.2-.2-.4-.5 0-.7.4-.2.4.1.6.3.2.2.4.5.6.7-.8.7-1.7 1.3-2.7 1.7-.2.1-.4.2-.5 0-.1-.2 0-.4.1-.6.2-.3.5-.5.9-.6.3 0 .5-.1.8-.1.3-.1.5-.3.2-.7zm1-5.4c.3-.2.7-.4 1-.6.8-.5 1.7-.9 2.6-1.4.1 1.3.1 1.3-1 1.6-.8.3-1.6.5-2.4.8-.1 0-.3.2-.4 0-.2-.1 0-.3.2-.4zm20.4 1.8c-3.2 1.9-6.6 3.2-10.1 4.4-2.1.7-4.2 1.1-6.4 1.1-.5 0-.9-.2-1.2-.5 6.5-.1 11.9-3.1 17.3-6.3.1-.1.3-.2.4-.3.2.4.3.7.4 1.1.1.3-.2.4-.4.5zm.6.3c.2.3.4.7.5 1.2.2.4-.2.4-.4.5-1.7.9-3.5 1.7-5.4 2.4-2.6 1-5.1 1.9-7.9 2.2-1 .1-2.1.2-3.1-.1 6.2-.4 11.2-3.2 16.3-6.2zM110.9 42c1.7-.1 3.3-.5 4.9-.9.6-.2 1 .4 1.5.4-2.1.6-4.2 1-6.4.5zm1.4 2.6c-.9.7-1.8 1.5-2.9 2-.6.3-1.1-.2-1.7-.3 1-.5 1.8-1 2.6-1.6 1-.9 1-.9 2-.1zm-2-.8c-.8.7-1.7 1.3-2.8 1.6-.2 0-.3.1-.6.1-.1 0-.3-.1-.3-.3-.1-.2.1-.2.2-.3 1-.5 2-1.1 2.7-1.9.5-.5.7 0 .9.2.5.3.1.5-.1.6zm-4.7-4.2c.2-.2.3-.2.4-.3.5-.3.9-.9 1.4-.8.3.1.4.9.7 1.5-.9-.2-1.6-.5-2.5-.4zm-1.7 6.6c.2-.2.5-.4.7-.6.3.7.7 1.4 1.3 1.9h-.3c-.8-.2-1.7-.4-2.7-.6.5-.3.8-.5 1-.7zm-2.8.1c1-.5 2-1 2.8-1.6.1-.1.3-.2.4 0 .1.1.1.3 0 .4-.3.7-2.2 1.5-3.2 1.2zm5.9-11.6c.2.8-.1 1.2-.7 1.6-3.6 2.4-7.7 3.7-11.9 4.7-.6.1-.5-.4-.7-.7 5-.4 9.1-3.2 13.3-5.6zm0 1.8c.6 1.1-.1 1.5-.9 2-2.9 1.6-5.8 3.2-9.1 3.9-.5.1-1 .1-1.6.2-.5.1-.8-.1-.9-.6 4.8-.5 8.6-3.1 12.5-5.5zm-2.6 3.9c0 1.3-1 1.9-2 2.4-1.5.9-3.1 1.4-4.8 1.4-.3 0-.6 0-.9.1-.7.3-.9-.1-1.2-.7 3.4-.1 6.1-1.8 8.9-3.2zm-1 2.7c.3.5.2.8-.3 1.2-1.1.8-2.2 1.4-3.5 1.4-.5 0-1 0-1.5-.3 1.9-.3 3.6-1.2 5.3-2.3zm-2.1 4.6c2.9.9 5.8 1.6 8.9 2.1.2 0 .4.1.4.4 0 .4 0 .9.2 1.4-4.3-1.2-8.3-2.7-12.2-4.7.8.2 1.7.5 2.7.8zm9-.7c.8-.6 1.6-1.2 2.3-1.9.1-.2.3-.2.5-.1.3.2.6.3 1 .5-.6.5-1.3 1-2 1.5-.6.3-1.2.6-1.8 0zm2.6.1c.2-.2.5-.4.7-.6.8-.7.8-.7 2-.3-1 .8-2.1 1.6-3.6 1.7.3-.4.7-.6.9-.8zm3.5-.8c.2-.2.6-.1.9-.2.4-.1.8-.1 1.3-.1-1.3 1.5-2.8 2.6-4.6 3.1-.4.1-.5-.3-.9-.5 1.4-.6 2.4-1.4 3.3-2.3zm8.7-30.4c.5-.2 1.1-.2 1.7-.2-.7-.4-1.5-.4-2.4-.5 1.1-1.5 2.4-2.6 4.2-3 2.1-.6 4.9 1.2 5.6 3.9.7 2.9.1 5.7-1.8 8-1.4 1.8-4 2.4-6.1 1.6-2-.8-3.5-2-4-4.2-.6-2.4.8-5 2.8-5.6zm2.8 18.2c-1.6 1-3.3 2-5 2.9.3-2.2 2.6-4.6 5-2.9zm-5.6 4.2c.1-.3.3-.4.6-.5 1.7-.9 3.4-2 5-3.1.4-.3.7-.3 1 .1.9 1.2 1 1.3-.4 2.1-2.3 1.4-4.8 2.4-7.5 3.4.6-.7 1-1.3 1.3-2zm-4.1-16.6c.2-.1.3-.1.5-.1 1.7-.4 2-.3 2.8 1.4-3.3-1.1-5.4.8-7.4 2.9.7-2 2.1-3.5 4.1-4.2zM114.9 40c-1.6.3-3 .7-4.4.9-.5.1-.4-.5-.7-.8 1.4-.1 2.7-.4 3.9-.9.6-.1.6.5 1.2.8zm-1.8-1.7c-1.1.3-2.3.5-3.4.7-.3 0-.3-.2-.3-.5 0-.2-.1-.4.2-.4 1.1-.1 2.1-.4 3.2-.9.2-.1.5-.3.5.2 0 .4.6.7-.2.9zm-.1-6c.5.7.4.9-.3 1.3-1.2.6-2.4 1.3-3.5 2.1-.1-.3-.1-.6.2-.8.1 0 .1-.1.2-.2 1.2-.8 2.3-1.6 3.4-2.4zm-.7-.8c-.9.6-1.8 1.2-2.6 2 .2-1.6 1.2-2.4 2.6-2zm-21.4.9c-.6-.1-.8-.7-.8-1.3 0-.5 0-1 .2-1.4 1.3-3.3 3.5-5.8 7.1-6.7.8-.2 1.7-.3 2.7-.1-.7.3-1.4.6-2 .9l-.9.6c-.4.2-.6.6-.3 1s.7.3 1 0c.8-.7 1.7-1.3 2.7-1.7 1.3-.5 2.7-.9 5.3-.4-.9-.5-1.8-.4-2.8-.6 2.3-1 4.6-1.5 7.2-1.5-1.7 1.4-2.4 3.1-2.4 5.1.2.9.3 1.7.4 2.6.3.7-.2 1.3-.5 1.8-.3.6-.9 1.1-1.4 1.5-2 1.5-4 1.2-5.3-1-.5-.8-1-1.6-1.7-2.2-1.3-1.1-2.8-1.2-4.3-.3-1.3.8-2.3 1.9-3 3.2-.3.2-.6.7-1.2.5zm-10.5 9.8c-.8-1.3-1.5-2.7-1.6-4.3-.1-.8.1-1.5.7-2l.1-.1c-.1-.1-.1 0-.2 0-1.1.5-1.6 1.8-1.4 3.2.3 1.4.8 2.6 1.6 3.8.3.5.4.8 0 1.3-.2.2-.2.5-.4.8-.9-1.1-1.7-2.3-2.2-3.6-.4-1.1-.6-2.2-.4-3.3.4-1.9 1.8-2.7 3.6-3.2 2.2-.6 4.5-.2 6.7.3 1.3.3 2.5.7 3.7 1.2.2.1.4.1.5.5.1 3.2 1.6 5.6 4.1 7.6l.3.3c-1.4-.4-2.7-.9-4-1.5-2-.8-4-1.5-6.1-1.7-1.6-.2-3.1 0-4.4.9-.4.1-.5.1-.6-.2zm.7 6.4c.8 1 1.8 1.9 2.8 2.7.1.1.3.3.5.2.2-.2-.1-.4-.2-.5l-1.3-1.3c-.7-.7-1.2-1.6-1.5-2.6-.2-.6-.4-1.1-.6-1.7.3 0 .3.2.3.3.8 1.6 2 2.7 3.4 3.8.1.1.2.3.4.1.2-.2 0-.3-.1-.4-.6-.6-1.2-1.3-1.8-1.9-.8-.8-1-2-1.4-3-.1-.2 0-.3.2-.4.6 1.9 2 3.2 3.5 4.4.1.1.2.2.3.2.1.1.2.2.3 0 .1-.1.1-.2-.1-.3l-1.1-1.1c-1-.9-1.7-2-2-3.4-.1-.5 0-.6.4-.8 1.4-.5 2.9-.5 4.3-.1 2.2.6 4.2 1.6 6.4 2.3.1 0 .2.1.3.2.2.6.7.8 1.1 1 5 2.8 10.3 5 15.8 6.5.3.1.6.2.8.5 2.8 3.1 7.3 3 10-.1 2-2.4 4.5-2.5 7-.5 1.4 1.2 2.5 2.6 3.4 4.2.1.2.1.5.4.4.2-.1.1-.4 0-.5-.2-.8-.6-1.6-1.1-2.5.5.2.8.4 1.2.5.8.3 1.6.4 2.3-.3.7-.7 1-1.6.7-2.6-.1-.3-.5-.6.1-.9.5-.3 1-.5 1.6 0 .8.7 1.8 1.1 2.8 1.4 1.3.3 2.5.2 3.6-.6.8-.6 1.6-1.3 2.3-1.9.1-.1.2-.2.4-.3 6.9-3 13.9-5.9 21.1-8 2.7-.8 5.5-1.5 8.4-1.4.8 0 1.5.3 2.2.6.3.1.4.2.1.5-1 1.1-2.3 1.5-3.7 1.9-.3.1-.7.2-1 .3-.1 0-.3.1-.3.2 0 .2.2.2.4.2 1.8-.3 3.7-.6 5.2-1.8.1-.1.2-.4.4-.2s-.1.3-.2.5c-1.3 1.4-2.9 2.1-4.7 2.5-.1 0-.3.1-.4.1-.1 0-.3.1-.2.2 0 .2.2.2.4.1 2-.3 3.9-.7 5.5-2.1h.1c0 .4-.1.7-.4 1-1.2 1.3-2.7 1.9-4.4 2.3-.2.1-.4.1-.6.2-.1 0-.4.1-.3.3 0 .2.2.1.4.1.8-.1 1.6-.2 2.4-.5.6-.2 1.3-.4 1.9-.7-.6 1-1.3 1.9-2 2.8-3.4 3.8-7.6 6.7-12.1 9.1-6 3.2-12.5 5.2-19.1 6.7-4.2.9-8.4 1.6-12.6 2.1-3.5.4-6.9.3-10.4.2-3.1-.1-6.1-.4-9.2-.8-8.5-1.2-16.5-3.9-23.6-8.8-2.6-1.7-5.1-3.6-7.1-6-.8-.8-1.3-1.6-1.6-2.6zm-7.9 8.8c1.2-.9 2.7-1.3 4.1-1.8 1.6-.5 3.2-.8 4.8-1.2.2-.1.4 0 .6.1 4.1 4 9.1 6.5 14.2 8.8.7.3 1.3.6 2 .9-.7.1-1.4-.1-2.1-.2-4.4-.8-8.7-1.6-12.9-3.2-1.1-.4-2.3-.9-3.2-1.6-.5-.4-.9-.9-.7-1.6-.1 0-.1-.1-.1 0-.7.3-1.6.5-1.6 1.4 0 .9.9 1.2 1.5 1.5 2.3 1.1 4.9 1.6 7.4 2.1 4.2.9 8.5 1.4 12.7 2.1 1.5.2 3 .9 4.5 1.3.5.1.9.3 1.4.4v.1c-1.5-.1-3.1-.3-4.6-.4-3.6-.4-7.2-.8-10.8-1.4-4.7-.8-9.4-1.6-14-3.2-1.1-.4-2.2-.9-3.2-1.6-1.2-.8-1.2-1.7 0-2.5zM244 85.5c-.9.6-1.8 1.1-2.8 1.4-14.4 5.1-29.1 9.2-44 12.4-1.8.4-3.5.7-5.3 1.1-.5.1-.7.2-.5.8.3 1.2.5 2.4.7 3.6.4 2-.3 3.6-1.8 4.9-1.3 1.1-2.8 1.5-4.4 1.8-4.9.8-9.8 1.5-14.7 2.2-1 .1-2.1.2-3.1.4 0 .3.3.3.4.4.7.6 1.2 1.3 1.3 2.3.1.6.1 1.2.2 1.8.3 1.6-.5 2.8-1.7 3.7-1.2.9-2.6 1.3-4 1.4-5.8.6-11.7 1.1-17.5 1.4-9.4.5-18.8.7-28.3.5-4-.1-8.1-.2-12.1-.5-4.5-.2-9.1-.6-13.6-1-2-.2-4.1-.3-6.1-.7-1.3-.3-2.5-.9-3.4-1.9-.7-.8-1.1-1.7-.9-2.7.1-.6.2-1.2.2-1.8.1-1.3.7-2.2 1.9-3-1.4-.2-2.6-.3-3.8-.5-4.9-.6-9.7-1.4-14.6-2.2-.4-.1-.9-.1-1.3-.2-3.5-1-5.1-3.5-4.4-7.2l.6-3c.1-.4-.1-.6-.5-.6-12.6-2.4-25.1-5.6-37.3-9.5-4.1-1.3-8.2-2.6-12.3-4.1-3.3-1.2-5.4-3.5-6.1-7-.3-1.4-.1-2.8.4-4.1 1.6-4.1 3.1-8.2 4.7-12.3 1.7-4.4 6.4-6.6 11-5 7.9 2.8 15.9 5.3 24 7.5C49.2 67 53.6 68 58 69c.5.1.8 0 1.1-.4 1.2-1.7 2.5-3.3 3.6-5.1 1.4-2.3 3.5-3.8 5.9-5l.8-.4c-.5.6-.2 1.1-.1 1.5.7 1.2 1.9 1.8 3.1 2.4 2.9 1.3 5.9 2 9 2.6 4.5.9 9.1 1.5 13.7 1.9 4.3.4 8.7.8 13 1 3 .1 6.1.5 9.1.8 4.1.5 8.3.7 12.5.5 3.3-.1 6.6-.3 9.9-.9 3.2-.5 6.4-.4 9.6-.6 3.6-.3 7.1-.5 10.7-.9 4-.4 8-.9 11.9-1.6 3.2-.6 6.4-1.3 9.4-2.5 1.2-.5 2.2-1.1 3.2-1.8 0-.1.1-.2.1-.2.8-.9.8-.9 1.7-.2.9.7 1.6 1.6 2.3 2.5 1.6 2 3.3 4 4.9 6 .3.3.5.4.9.3 12.3-2.8 24.5-6.2 36.4-10.5 3.1-1.1 5.9-.9 8.7.9 1.3.9 2.3 2.1 2.9 3.7 1.6 4.2 3.3 8.4 4.9 12.6 1.3 3.7-.1 7.6-3.2 9.9zm-156.8-36c-.1-.2-.2-.4 0-.6.2-.2.4-.1.6 0 .3.1.5.2.7.4 3.6 3 7.7 5 11.9 6.8 5.2 2.1 10.6 3.5 16.2 4.3 5.4.8 10.9 1 16.4.7 7.7-.3 15.1-1.9 22.2-4.8 2.6-1 5-2.3 7.4-3.7l.6-.3c.1 0 .2 0 .2-.1-1.7 1.4-3.7 2.6-5.7 3.6-5.6 2.8-11.5 4.6-17.7 5.6-4.9.8-9.9 1-14.8.7-8.1-.4-16-2.1-23.7-4.8-1.5-.5-3-1.1-4.5-1.6-.3-.1-.7-.3-.8 0-.1.3.3.5.6.6 4.6 2.8 9.6 4.6 14.8 6 6.6 1.7 13.3 2.4 20.1 2.1 6-.2 11.9-1.2 17.8-2.8.2-.1.5-.2.8 0-.9.4-1.8.6-2.7.8-7.1 1.9-14.3 2.8-21.6 2.6-10.1-.2-19.7-2.4-28.5-7.4-3.5-2-6.8-4.4-9.7-7.2-.2-.2-.5-.5-.6-.9zm34.9-.7c0 .2-.1.2-.2.3-1.2 1.2-2.6 2.3-4.2 2.9-.2.1-.4.3-.6 0-.1-.3.2-.4.3-.5 1.5-.7 2.8-1.7 4-2.8.1-.1.2-.3.5-.2.2.1.2.2.2.3zm4 76.2c-7.2 0-14.3-.2-21.5-.6-5.7-.3-11.4-.8-17.1-1.4-1.2-.1-2.3-.5-3.2-1.3-.9-.7-1.4-1.6-1.2-2.8.1-.5.1-1 .2-1.4.2-1.6 1-2.6 2.6-3.1 1.5-.4 3-.2 4.4-.1 3.3.3 6.5.6 9.8.9 4.7.4 9.3.6 14 .8 10.5.4 21.1.2 31.6-.3 4.5-.2 8.9-.6 13.4-1 1.8-.2 3.6-.5 5.4-.4 1.1 0 2.1.3 3 .9.7.5 1.2 1.1 1.3 2 .1.6.1 1.3.2 1.9.2 1.2-.4 2.2-1.3 2.9-1.2 1-2.7 1.2-4.2 1.4-5.3.5-10.7 1-16 1.3-6.4.4-12.9.6-19.4.6-.7-.3-1.3-.3-2-.3z"/><path class="st0" d="M75.3 77.9c-2.1 3.7-2.8 7.8-3.5 11.8-.4 1.9-.5 3.8-.4 5.7 0 .5-.1.6-.5.4-.1 0-.1 0-.2-.1-1.3-.6-2.5-1-4-.7-.4.1-.7-.1-.7-.6-.4-4-1.5-7.8-3.5-11.3-.1-.1-.1-.2-.2-.4-.3.2-.4.5-.4.7-.3 1.6-.7 3.2-.9 4.8-.1.7 0 1.4.2 2.1.2.5.4.9.8 1.1.6.3.5.6.3 1-.7 1.4-2.5 1.8-3.8.7-.4-.3-.7-.4-1.2-.3-1.8.5-3.4-.8-3.3-2.5 0-.2-.1-.4.3-.5 1 0 1.5-.6 2-1.4.5-.8.7-1.8.9-2.7.3-1.7.8-3.5 1-5.2.2-1.9 0-3.7-.6-5.4-.2-.6 0-.6.5-.6s1 .2 1.5.4c.7.3 1.3.4 2-.1.3-.2.6-.2.8.1.4.7 1.1.9 1.9.9.2 0 .4 0 .6.1.4.1.6.3.7.7.3 2.7 1.1 5.2 2.5 7.5.2.3.3.5.6.8.5-2.8.5-5.5.1-8.3.4.1.7.2.9.3.7.2 1.3.3 1.9-.2.3-.2.6-.2.8.1.4.7 1.1.8 1.8.8.3.2.7.1 1.1.3zM95 96.3c-.4-.1-.7-.5-1-.8-.5-.7-.9-1.5-1.2-2.3-.8-2.3-1.4-4.8-1.8-7.2-.3-1.7-.7-3.3-.4-5 .2-1 .1-1-.9-1h-.5c-.8.1-1.5-.1-2-.7-.2-.3-.5-.3-.7-.1-.6.5-1.3.5-2 .3-.3-.1-.5-.2-.8-.2-.3-.1-.5 0-.5.4 0 1-.2 2-.6 3-.8 2.4-1.7 4.7-2.8 6.9-.5 1-.9 2-1.6 3-.6.9-1.4 1.6-2.6 1.5-.5 0-.6.2-.6.6 0 .2 0 .4.1.6.4 1.4 1.6 1.9 3.2 1.4.4-.1.7-.1 1.1.2.6.4 1.2.6 1.9.6 1.2 0 2.1-.6 2.5-1.7.1-.3.1-.5-.3-.6-.9-.3-1.1-.8-.9-1.7.1-.5.3-.9.4-1.4.2-.6.6-.8 1.3-.7.5.1 1 .1 1.5.2 2.1.3 2.2.3 2.3 2.5.1.9-.3 1.4-1.2 1.5-.5 0-.5.2-.5.6.1 1.4 1.3 2.5 3 2.2 1-.2 1.9-.1 2.8.3 1.3.6 2.7 0 3.3-1.2.2-.5.3-1-.5-1.2zm86.3-18.5c-.6-.2-1.2-.2-1.8-.2-1.6-.1-3.1.4-4.6.7-.6.2-1.3.2-1.8-.3-.3-.2-.6-.2-.8.1-.5.7-1.2.8-2 .8-.5 0-1 0-1.5.2-.4.1-.5.3-.1.6 1.4 1.6 2.2 3.4 2.6 5.5.2 1.4.4 2.9.6 4.4.2 1.1.3 2.1.1 3.2-.1.8-.4 1.6-1.2 2-.4.2-.4.4-.3.8.5 1.3 1.9 2 3.3 1.4 1-.4 2-.8 2.9-.4 1.9 0 3.1-1 3-2.5 0-.3-.1-.5-.5-.5-.7-.1-1.2-.5-1.6-1.1-.6-.9-.8-1.9-1-2.9-.1-.6.1-.7.6-.7 1.9-.1 3.7-.5 5.3-1.7 1.9-1.4 2.6-3.3 2.1-5.6-.2-2.1-1.4-3.3-3.3-3.8zm-17.1 11.6c-.9-.4-1.7-.8-2.7-1.1-1.3-.4-2.7-.7-4-1.3-.7-.3-1.3-.7-1.8-1.2-.8-1-.4-2.3.9-2.6 1-.2 1.9 0 2.6.7.4.3.7.8 1 1.2 1.1 1.4 2.5 2.3 4.6 2.3-.7-.8-.7-1.5-.3-2.2.5-1 .2-2-.4-2.9-.3-.4-.4-.7-.1-1.2.2-.3.3-.7.2-1.1-.1-.4-.3-.6-.7-.4-.4.2-.8.4-1.3.5-1.2.2-2.5.7-3.7-.2-.3-.2-.5-.1-.7.2-.3.4-.7.5-1.2.6-1.1.1-2.2.4-3.2 1-1.5 1-2.4 2.3-2.2 4.2.1 2.1 1.3 3.6 3 4.7 1.6 1 3.3 1.5 5.1 1.9.7.2 1.5.4 2.1.8.5.4.9.9.7 1.6-.1.7-.6 1-1.2 1.1-1.4.3-2.7.3-4.1-.2-1.1-.4-1.7-1.2-1.6-2.4 0-.2 0-.4-.2-.5-1.1-.3-2.3-.4-3 .7-.7 1-.7 2.1.2 3.1.2.2.2.4.1.6-.3.5-.4 1-.1 1.6.2.4.4.5.8.3.9-.5 1.9-.7 3-.5.9.2 1.8.3 2.7.3 2 0 3.9-.2 5.7-1.3 3.5-2 2.9-6.7-.2-8.3zm-76.8 4.8c.1-.7-.3-.9-.9-.9-.2 0-.5-.1-.7-.1-.5-.1-.7.3-.8.7-.1.4.1.7.4.9.3.2.6.2.9.2.7 0 1.1-.3 1.1-.8zm45.2 2.2c0-.3-.1-.6-.4-.8-.2-.1-.5-.1-.7-.1h-.4c-.6 0-.9.3-.9.9 0 .6.4.8.8.8s.8.1 1.2-.1c.3-.1.4-.4.4-.7zm8.1 1.1c-.6-.1-1-.4-1.4-.9-.7-.7-1.2-1.6-1.7-2.5-1.2-2.6-2.3-5.3-3.1-8-.3-1.1-.6-2.2-.6-3.3 0-1-.1-1.1-1-.9-.1 0-.2.1-.3.1-.8.2-1.6.2-2.3-.5-.2-.2-.4-.2-.6 0-.6.7-1.4.7-2.3.5-.2-.1-.4 0-.7 0-.3 0-.4.1-.3.4.2 1 .1 2-.2 3.1-.7 3.5-1.5 6.9-2.9 10.2-.5 1.2-1.3 2-2.7 2.2-.2 0-.3.1-.3.3.1 1.6 1.3 2.6 2.5 2.3 1.1-.4 2.1-.3 3.2 0 1.5.4 2.9-.6 3.2-2 .1-.3 0-.5-.4-.6-.9-.2-1.2-.6-1.1-1.5 0-.5.1-.9.2-1.4.2-.9.3-1 1.2-1h1.2c2.4 0 2.5.1 2.9 2.1v.2c.1.8-.2 1.3-1 1.4-.6.1-.5.4-.4.8.3 1.4 1.8 2.1 3.4 1.6.5-.1 2-.2 2.6-.1 1.7.4 3.1-.5 3.3-2.1 0-.1.1-.3-.4-.4zM27.4 75.3c.2-.1.4-.1.6-.2 2.3-.8 3.4-3.3 2.6-5.6-.2-.7-.7-1.3-1.2-1.8-.7-.6-1.5-1.1-2.3-1.5-1.2-.6-2.5-.9-3.8-1.2-.6-.1-1.2-.4-1.5-1.1-.2-.3-.4-.5-.8-.3-.7.4-1.4.2-2.1-.2-.4-.3-.9-.5-1.4-.5-.4-.1-.6 0-.5.5.3 1.2.4 2.4.3 3.7-.4 3-1.6 5.8-2.7 8.5-.1.3-.3.5-.5.7-.6.8-1.3 1.4-2.3 1.3-.3 0-.3.1-.4.3-.2.9 0 1.6.6 2.2.8.8 1.7.9 2.8.9.2 0 .5-.1.7.1 2.1 1.8 4.6 2.6 7.3 3 3.7.5 6.4-2 6.1-5.6 0-1.2-.7-2.2-1.5-3.2zm89.9 6.6c-.7.1-1.4.1-1.9-.5-.3-.3-.6-.3-.9 0-.5.5-1.2.6-1.9.4-.3-.1-.6-.1-.9-.2.8 2.7 1.1 5.4 1 8.2-.4-.3-.6-.6-.9-.9-1.6-2-2.7-4.4-3.3-6.9-.1-.6-.4-.7-.9-.7-.2 0-.4 0-.7.1-.7.1-1.3 0-1.8-.6-.3-.4-.6-.3-.9 0-.4.4-.9.5-1.5.4-.6-.1-1.2-.3-1.8-.3-.5.1-.7.1-.4.7 1 1.9 1.4 3.9 1.3 6-.1 1.6-.2 3.2-.3 4.9-.1.9-.2 1.9-.6 2.7-.3.7-.8 1.3-1.6 1.4-.4.1-.3.3-.3.5.1 1.7 1.8 2.7 3.4 2.1.5-.2.9-.2 1.4.1 1.5.8 3.3.1 3.6-1.5.1-.2.2-.5-.1-.7-1.1-.4-1.5-1.3-1.6-2.3-.3-2 .1-3.9.2-5.9 0-.2.1-.4.3-.5.2.2.3.4.4.5 2.3 3.1 3.9 6.6 4.8 10.4.1.6.4.9 1 .7 1.2-.4 2.4-.4 3.5.1.2.1.5.1.7.1.3 0 .5 0 .4-.4-.8-4.3-.3-8.6.2-12.9.2-1.8.6-3.5 1.4-5.1-.6 0-.9 0-1.3.1zm117.9-13.5c.1-1-.1-1.9-.8-2.5-.5-.5-.8-1-.5-1.7.1-.4 0-.9-.4-1.2-.4-.2-.6.2-.9.4-.9.7-1.9 1.2-3.2.8-.4-.1-.6 0-.8.3-.9 1.1-2 1.6-3.4 1.1-.3-.1-.5 0-.7.2-.9 1.2-2.1 1.5-3.5 1.1-.3-.1-.5-.1-.7.2-.8 1.2-1.9 1.4-3.2 1.3-.3 0-.6-.2-.8.1-.1.3 0 .7.1.9.1.2.3.4.5.5.4.3.5.6.4 1.1-.2 1-.1 2 .7 2.8.7.8 1.3 1.6.9 2.7 1.4-.2 2.4-1.3 2.6-2.5.1-.7 0-1.3-.1-2-.1-.6-.2-1.2.1-1.8.3-.7 1-.9 1.6-.4.5.4.8.9 1 1.4 1.1 2.6 2 5.3 2.6 8.1.2 1.1.2 2.2-.8 3-.4.3-.4.5-.2.9.7 1.2 2.3 1.7 3.7.7.9-.6 1.7-.9 2.8-.9 1.6 0 2.7-1.4 2.5-2.8 0-.3 0-.6-.5-.6-.9.1-1.5-.4-2-1-.6-.7-.9-1.4-1.2-2.3-.5-1.5-1.1-3.1-1.5-4.6-.3-1.1-.6-2.2-.6-3.3 0-.5.1-1.1.7-1.3.6-.2 1.1.1 1.4.6.3.5.6 1.1.9 1.6 1 1.6 2.5 2.2 4.4 1.5-1.1-.4-1.2-1.4-1.1-2.4zm-17.5 16.7c-1.5 0-2.1-1-2.6-2.2-.5-.9-.7-2-1-3-1-3.2-1.8-6.4-.6-9.7.1-.3-.1-.3-.3-.3-.6 0-1.1.2-1.6.4-.7.3-1.4.5-2.1.1-.2-.2-.5-.2-.7.1-.5.9-1.3 1-2.2 1.1-.6 0-1.1.2-1.6.6 2.2 1.9 3.4 4.3 4.1 7.1.4 1.7 1 3.3 1.1 5.1.1 1.2 0 2.3-1.2 3-.3.2-.1.3-.1.5.5 1.3 1.9 1.8 3.3 1.3.6-.2 1.1-.8 1.6-1 .6-.2 1.3.1 1.9 0 1.4-.2 2.4-1.4 2.2-2.8 0-.1 0-.3-.2-.3zM50.5 89.2c-1.4-.7-1.8-2.1-2.1-3.5-.7-3.5-1-7.1-.9-10.7 0-.6.1-1.2.3-1.8.3-1 .2-1.1-.9-1.3h-.4c-.7-.1-1.4-.3-1.8-1-.2-.3-.4-.4-.8-.2-.7.4-1.3.3-2 0-.2-.1-.5-.2-.7-.3-.4-.2-.6-.1-.6.4-.1.9-.4 1.8-.9 2.6l-1.8 3.3c-1.1 2-2.3 4-3.7 5.8-.8 1.1-1.9 1.7-3.3 1.5-.3-.1-.3.1-.3.3-.4 1.5.6 2.7 2.1 2.8 1 0 1.7.2 2.5.7.4.2.8.4 1.2.4 1.1.2 2.2-.3 2.6-1.3.2-.3.2-.5-.2-.8-.8-.4-1-.9-.7-1.8.2-.5.5-1.1.8-1.6.2-.3.4-.4.8-.3 1 .3 2 .6 3 .8.5.1.7.4.7.9 0 .3 0 .6.1.9v.4c-.1 1.3-.3 1.5-1.6 1.5-.4 0-.4.3-.4.5-.2 1.2.8 2.5 2.3 2.6 1.4 0 2.5.4 3.7.9 1.3.6 2.7-.1 3.1-1.4 0 .1.2-.1-.1-.3zm-7.7-3.5c0-.6-.6-1-1.7-1.1-.6 0-.7.4-.8.9-.1.5.6 1 1.5 1 .6 0 1-.3 1-.8zm162.6 3.5c-.5-.2-.5-.5-.3-1 .7-1.8-.1-3.6-1.8-4.1-1.2-.3-2.4-.1-3.5.5.2.3.5.5.6.7.5.7.7 1.5.5 2.3-.4 1.5-2.5 2.6-4 2-.9-.3-1.2-1.1-1.4-1.9-.4-1.5-.7-3-1-4.5-.6-2.5-.8-5.1-.2-7.6.2-1 0-1.2-1-.9-.1 0-.2.1-.4.2-.7.3-1.4.4-2.1 0-.3-.2-.6-.3-.8.1-.5.8-1.3 1-2.2 1-.6 0-1.2.1-1.7.5 1.5 1.5 2.5 3.2 3.1 5.1.3 1 .5 2 .7 3 .2 1.2.6 2.5.7 3.7.1 1.2.1 2.4-1 3.2-.6.4-.5.8-.2 1.2.3.5.7.8 1.2 1 1 .3 2 .1 2.9-.5.4-.3.7-.3 1.2-.2 2.2.4 4.3-.1 6.3-1.2 1.3-.8 2.7-1.2 4.2-1.1.4 0 .9.2 1.1-.1.1-.4-.3-.8-.6-1.1l-.3-.3z"/><path class="st3" d="M29.7 84.5c-2.6 2.7-7.4 2.5-10.4.8-.8-.5-1.5-1-2.2-1.7-.2-.2-.4-.3-.7-.2-3.2 1-6.3-1.8-5.7-5.1 0-.2 0-.3.1-.5.1-.5.2-.8.9-.7.7.1 1.3-.3 1.8-.8.3-.4.6-.8.8-1.3.7-2 1.5-4 2.1-6 .6-2 .5-4 0-6.1-.1-.4 0-.5.4-.5.8 0 1.6.2 2.2.6.6.4 1.1.5 1.8.2.5-.2 1-.1 1.3.4.3.6.8.8 1.5 1 2 .4 3.8 1 5.5 2.1 1.6 1 2.8 2.3 3.3 4.2.6 2.4-.1 5-2.7 6-.4.2-.3.3-.2.6.6 1.2 1.1 2.5 1.2 3.8 0 .5 0 1.1-.2 1.5-.2.3 0 .5.3.5 1.1.1 1.9-.2 2.6-1 .7-.8 1.2-1.6 1.8-2.5 1.4-2.2 2.8-4.6 4-6.9.5-.9.8-1.8.8-2.8 0-.4.2-.5.5-.4.5.1 1 .2 1.5.5s1.1.4 1.7 0c.5-.3 1-.2 1.3.4.3.6.9.8 1.5.8 1.7-.1 2.5 1 3.3 2.2.1.1.1.3 0 .4-.9 4.3-.7 8.6.5 12.8.5 1.7 1.7 2.8 2.8 4.2v-.3c.1-.7 0-1.3 1.1-1.3.8 0 1.2-.7 1.6-1.4.5-1.1.7-2.4 1-3.6.5-2.1.9-4.1.7-6.3-.1-1.1-.3-2.2-.8-3.2-.2-.6 0-.6.4-.7.8 0 1.5 0 2.2.3.6.3 1.3.4 1.9-.1.4-.3.8-.2 1 .2.5.7 1.1.8 1.9.8.7 0 1.2.3 1.7.8 1.2 1.2 1.4 2.7 1.8 4.2.1.4.2.9.4 1.3.2-1.3 0-2.5-.1-3.8 0-.5-.1-1-.2-1.4-.1-.4.1-.5.4-.4.3.1.7.2 1.1.3.7.2 1.3.3 2-.1.4-.3.8-.2 1.1.2.4.6 1.1.8 1.7.7 1.7-.3 2.3 1.1 3.2 2 .1.1.1.2 0 .3-1.7 2.8-2.4 5.9-3.1 9-.7 3.1-1.2 6.3-1.4 9.6-.8-.1-1.6-.4-2.3-.8-.3-.2-.6-.2-1-.2-.7.2-1.5.1-2.2.1-.4 0-.6-.2-.9-.5-1.4-1.2-1.4-2.8-1.6-4.3-.3-1.8-.7-3.6-1.3-5.4 0-.1-.1-.2-.2-.3-.3 1.3-.5 2.5-.5 3.9 0 .5.2.9.5 1.2.2.2.3.4.5.6.8 1 .9 1.3.3 2.4-.5 1-1.4 1.5-2.4 1.3-.8-.1-1.5-.4-2.1-.9-.2-.1-.3-.2-.6-.2-2.6.8-5.2-.9-5.7-3.6 0-.1-.1-.1-.1-.2-.2.3-.4.7-.6 1-1.3 1.8-3.8 1.7-5.1-.1-.2-.2-.2-.4-.5-.2-1.6.9-3.5.2-4.6-1.1-.6-.7-1-1.4-1.4-2.3-.3.9-.9 1.5-1.7 1.8-1.3.5-2.7 0-3.6-1.2-.2-.2-.2-.4-.6-.2-2.3 1-4.9-.5-5.3-3 0-.2-.1-.7 0-1.4zm38.8.5c-.3-.2-.5-.5-.6-.8-1.4-2.3-2.2-4.8-2.5-7.5-.1-.5-.2-.7-.7-.7-.2 0-.4-.1-.6-.1-.8 0-1.4-.2-1.9-.9-.2-.3-.5-.4-.8-.1-.6.5-1.3.4-2 .1-.5-.2-.9-.3-1.5-.4-.4 0-.7 0-.5.6.7 1.7.9 3.6.6 5.4-.2 1.8-.7 3.5-1 5.2-.2.9-.4 1.9-.9 2.7-.4.8-1 1.4-2 1.4-.4 0-.3.3-.3.5-.2 1.7 1.4 3 3.3 2.5.5-.1.8 0 1.2.3 1.3 1 3.1.6 3.8-.7.2-.4.3-.8-.3-1-.5-.2-.7-.7-.8-1.1-.2-.7-.3-1.4-.2-2.1.2-1.6.6-3.2.9-4.8.1-.3.1-.6.4-.7.1.1.2.2.2.4 2 3.5 3.1 7.3 3.5 11.3.1.6.3.7.7.6 1.4-.3 2.7.1 4 .7.1 0 .1 0 .2.1.4.2.6.1.5-.4-.1-1.9 0-3.8.4-5.7.8-4.1 1.4-8.2 3.5-11.8-.4-.1-.7-.1-1.1-.1-.7 0-1.4-.2-1.8-.8-.2-.3-.5-.4-.8-.1-.6.5-1.3.4-1.9.2l-.9-.3c.5 2.6.4 5.3-.1 8.1zm-25.1.1v.4c-.1 1.3-.3 1.5-1.6 1.5-.4 0-.4.3-.4.5-.2 1.2.8 2.5 2.3 2.6 1.4 0 2.5.4 3.7.9 1.3.6 2.7-.1 3.1-1.4.1-.2.2-.4 0-.5-1.4-.7-1.8-2.1-2.1-3.5-.7-3.5-1-7.1-.9-10.7 0-.6.1-1.2.3-1.8.3-1 .2-1.1-.9-1.3h-.4c-.7-.1-1.4-.3-1.8-1-.2-.3-.4-.4-.8-.2-.7.4-1.3.3-2 0-.2-.1-.5-.2-.7-.3-.4-.2-.6-.1-.6.4-.1.9-.4 1.8-.9 2.6l-1.8 3.3c-1.1 2-2.3 4-3.7 5.8-.8 1.1-1.9 1.7-3.3 1.5-.3-.1-.3.1-.3.3-.4 1.5.6 2.7 2.1 2.8 1 0 1.7.2 2.5.7.4.2.8.4 1.2.4 1.1.2 2.2-.3 2.6-1.3.2-.3.2-.5-.2-.8-.8-.4-1-.9-.7-1.8.2-.5.5-1.1.8-1.6.2-.3.4-.4.8-.3 1 .3 2 .6 3 .8.5.1.7.4.7.9v1.1zm-16-9.8c.2-.1.4-.1.6-.2 2.3-.8 3.4-3.3 2.6-5.6-.2-.7-.7-1.3-1.2-1.8-.7-.6-1.5-1.1-2.3-1.5-1.2-.6-2.5-.9-3.8-1.2-.6-.1-1.2-.4-1.5-1.1-.2-.3-.4-.5-.8-.3-.7.4-1.4.2-2.1-.2-.4-.3-.9-.5-1.4-.5-.4-.1-.6 0-.5.5.3 1.2.4 2.4.3 3.7-.4 3-1.6 5.8-2.7 8.5-.1.3-.3.5-.5.7-.6.8-1.3 1.4-2.3 1.3-.3 0-.3.1-.4.3-.2.9 0 1.6.6 2.2.8.8 1.7.9 2.8.9.2 0 .5-.1.7.1 2.1 1.8 4.6 2.6 7.3 3 3.7.5 6.4-2 6.1-5.6 0-1.2-.7-2.2-1.5-3.2zm14.4 11.2c.6 0 .9-.3 1-.8 0-.6-.6-1-1.7-1.1-.6 0-.7.4-.8.9-.1.5.6 1 1.5 1zm56.7 11.4c0-.2-.1-.3-.1-.4-.1-.6-.1-1.1.8-1.3 1.2-.3 1.6-1.4 1.7-2.5.2-2.1.4-4.1.4-6.2 0-2.2-.4-4.2-1.5-6.1-.3-.5-.1-.6.3-.7.8-.2 1.6-.2 2.4 0 .6.2 1.2.2 1.7-.3.4-.4.8-.3 1.1.1.5.5 1.1.7 1.9.5.7-.2 1.3 0 1.9.6 1 .9 1.7 1.9 2 3.1.2.7.5 1.3.9 2 0-1-.2-1.9-.4-2.9-.1-.7-.4-1.4-.5-2.2-.1-.3-.1-.6.4-.4.3.1.6.1.9.1.7.1 1.5.2 2.1-.4.3-.3.7-.3 1 0 .6.7 1.4.7 2.1.5.9-.2 1.6.1 2.3.7.7.7 1 1.2.5 2.2-.9 2.1-1.1 4.4-1.3 6.6-.4 3.7-.5 7.4-.2 11.1 0 .3 0 .4-.3.3-.1 0-.3-.1-.4-.1-.8 0-1.5-.7-2.2-.5-.8.2-1.5.4-2.3.4-.5 0-.9-.2-1.3-.5-1.2-.9-1.5-2.1-1.9-3.4-.5-2-1.3-3.9-2.2-5.7 0-.1-.1-.2-.2-.2 0 1.3-.2 2.7.1 4 .1.3.2.7.5.9.2.2.4.5.7.6.9.6 1 1.3.6 2.3-.4 1-1 1.6-2.1 1.7-.9.1-1.7-.1-2.4-.6-.2-.1-.4-.2-.6 0-2.3 1-5.2-.2-6-2.5-.1-.2 0-.4-.2-.4-.2.4-.3.8-.5 1.1-1.1 1.9-3.5 2.2-5 .6-.2-.2-.2-.4-.5-.1-1.5 1.2-3.6.6-4.8-.6-.6-.6-1.1-1.2-1.5-2-.4 1.3-1.1 2.1-2.3 2.3-1.2.2-2.1-.2-2.9-1-.1-.1-.2-.4-.5-.2-1.9 1.3-5 .6-5.8-2.5-.2-.7-.2-1.4-.2-2.1 0-.4.2-.5.5-.4 1.6.2 2.6-.6 3.3-1.9 1.7-3.3 3.1-6.8 4.3-10.3.2-.7.3-1.4.1-2.1-.1-.3 0-.5.4-.5.6 0 1.2.1 1.8.3.5.2.9.1 1.4-.2.7-.5.9-.5 1.5.2.3.4.7.6 1.3.5h.9c1.5-.2 2.2.9 3 1.7.1.1.1.2.1.4-.3 2.5.1 5 .6 7.4.2 1.1.5 2.2.9 3.3.2 2.4 1.6 4.2 3.7 5.7zm14.2-8.1c-.4-.3-.6-.6-.9-.9-1.6-2-2.7-4.4-3.3-6.9-.1-.6-.4-.7-.9-.7-.2 0-.4 0-.7.1-.7.1-1.3 0-1.8-.6-.3-.4-.6-.3-.9 0-.4.4-.9.5-1.5.4-.6-.1-1.2-.3-1.8-.3-.5.1-.7.1-.4.7 1 1.9 1.4 3.9 1.3 6-.1 1.6-.2 3.2-.3 4.9-.1.9-.2 1.9-.6 2.7-.3.7-.8 1.3-1.6 1.4-.4.1-.3.3-.3.5.1 1.7 1.8 2.7 3.4 2.1.6-.2.9-.2 1.4.1 1.5.8 3.3.1 3.6-1.5.1-.2.2-.5-.1-.7-1.1-.4-1.5-1.3-1.6-2.3-.3-2 .1-3.9.2-5.9 0-.2.1-.4.3-.5.2.2.3.4.4.5 2.3 3.1 3.9 6.6 4.8 10.4.1.6.4.9 1 .7 1.2-.4 2.4-.4 3.5.1.2.1.5.1.7.1.3 0 .5 0 .4-.4-.8-4.3-.3-8.6.2-12.9.2-1.8.6-3.5 1.4-5.1-.4 0-.8 0-1.1.1-.7.1-1.4.1-1.9-.5-.3-.3-.6-.3-.9 0-.5.5-1.2.6-1.9.4-.3-.1-.6-.1-.9-.2.6 2.7.9 5.4.8 8.2zm-31.4 7.6c1.2 0 2.1-.6 2.5-1.7.1-.3.1-.5-.3-.6-.9-.3-1.1-.8-.9-1.7.1-.5.3-.9.4-1.4.2-.6.6-.8 1.3-.7.5.1 1 .1 1.5.2 2.1.3 2.2.3 2.3 2.5.1.9-.3 1.4-1.2 1.5-.5 0-.5.2-.5.6.1 1.4 1.3 2.5 3 2.2 1-.2 1.9-.1 2.8.3 1.3.6 2.7 0 3.3-1.2.2-.5.4-1-.4-1.2-.4-.1-.7-.5-1-.8-.5-.7-.9-1.5-1.2-2.3-.8-2.3-1.4-4.8-1.8-7.2-.3-1.7-.7-3.3-.4-5 .2-1 .1-1-.9-1h-.5c-.8.1-1.5-.1-2-.7-.2-.3-.5-.3-.7-.1-.6.5-1.3.5-2 .3-.3-.1-.5-.2-.8-.2-.3-.1-.5 0-.5.4 0 1-.2 2-.6 3-.8 2.4-1.7 4.7-2.8 6.9-.5 1-.9 2-1.6 3-.6.9-1.4 1.6-2.6 1.5-.5 0-.6.2-.6.6 0 .2 0 .4.1.6.4 1.4 1.6 1.9 3.2 1.4.4-.1.7-.1 1.1.2.4.4 1.1.6 1.8.6zm5-2.4c.7 0 1-.2 1.1-.8.1-.7-.3-.9-.9-.9-.2 0-.5-.1-.7-.1-.5-.1-.7.3-.8.7-.1.4.1.7.4.9.3.1.6.1.9.2zm45.4 4.7c-.4 2.8-3.3 3.5-5 1.9-.2-.2-.3-.2-.5 0-1.8 1.6-5.3 1.1-6.3-2.3 0-.1-.1-.2-.1-.4-.1-.4-.3-.9-.1-1.3.2-.4.7-.2 1.1-.3 1.1-.3 1.7-1 2.1-2 .8-1.9 1.3-3.9 1.8-5.9.4-1.6.8-3.3 1.1-4.9.2-.9.1-1.9-.2-2.8.7-.3 1.5-.2 2.2 0 .6.1 1 0 1.4-.4.5-.5.9-.5 1.4 0 .5.5 1.1.5 1.7.3 1.6-.5 2.6.3 3.7 1.2.2.2.1.4.1.5.4 4.5 1.7 8.7 4.3 12.5.8 1.2 2 1.8 3.1 2.6.4.2.4.5.4.9-.2 1.2-.8 2.2-2 2.7s-2.3.3-3.2-.5c-.2-.2-.3-.2-.5 0-1 1.1-2.9 1.2-4.3.4-.8-.6-1.5-1.3-2.2-2.2zm-1.4-5.7c2.4 0 2.5.1 2.9 2.1v.2c.1.8-.2 1.3-1 1.4-.6.1-.5.4-.4.8.3 1.4 1.8 2.1 3.4 1.6.5-.1 2-.2 2.6-.1 1.7.4 3.1-.5 3.3-2 .1-.3.1-.5-.4-.6-.6-.1-1-.4-1.4-.9-.7-.7-1.2-1.6-1.7-2.5-1.2-2.6-2.3-5.3-3.1-8-.3-1.1-.6-2.2-.6-3.3 0-1-.1-1.1-1-.9-.1 0-.2.1-.3.1-.8.2-1.6.2-2.3-.5-.2-.2-.4-.2-.6 0-.6.7-1.4.7-2.3.5-.2-.1-.4 0-.7 0-.3 0-.4.1-.3.4.2 1 .1 2-.2 3.1-.7 3.5-1.5 6.9-2.9 10.2-.5 1.2-1.3 2-2.7 2.2-.2 0-.3.1-.3.3.1 1.6 1.3 2.6 2.5 2.3 1.1-.4 2.1-.3 3.2 0 1.5.4 2.9-.6 3.2-2 .1-.3 0-.5-.4-.6-.9-.2-1.2-.6-1.1-1.5 0-.5.1-.9.2-1.4.2-.9.3-1 1.2-1 .4.1.8.1 1.2.1zm1.2 1.6h-.4c-.6 0-.9.3-.9.9 0 .6.4.8.8.8s.8.1 1.2-.1c.3-.1.4-.4.4-.7 0-.3-.1-.6-.4-.8-.3-.2-.5-.1-.7-.1zm22.5-3.4c1.4-.2 2.4.9 3.5 1.6.1.1.1.2.1.3.3 1.3 2 2 3.1 1.2.4-.3.4-.5 0-.8-.5-.4-1.2-.6-1.7-.9-1.8-.8-3.6-1.6-5.2-2.7-2.1-1.4-3.3-3.3-3.2-5.9.1-1.6.8-2.8 2-3.7 1.1-.8 2.3-1.2 3.6-1.4.6-.1 1.1-.2 1.5-.7.2-.2.4-.4.8-.2 1.6.9 3.2.5 4.8-.2.7-.3 1.2-.3 1.8.1.3.2.7.4 1 .6.7.5.9.8.5 1.6s-.3 1.5.2 2.3c.5.8.7 1.8.2 2.8-.4.7-.3 1.4.2 2.1.1.1.3.3.1.5-.1.1-.2.1-.4 0-2-.6-4.1-1.2-5.8-2.6-.4-.3-.7-.6-1.1-1-.5-.4-1-.7-1.6-.5-.3.1-.6.2-.7.6-.1.3.1.6.3.7.5.4 1.1.6 1.6.8 1.7.6 3.4 1.1 5 1.8.7.3 1.3.7 2 1.1 2.4 1.5 2.9 4.7 2.4 6.5-.5 1.5-1.6 2.5-2.9 3.2-2.2 1.2-4.6 1.4-7.1.9-1.5-.3-3-.4-4.2.7-.2.2-.3.1-.5 0-.7-.4-1.5-.9-2.2-1.3-.8-.5-1.1-1.5-.7-2.4.1-.4.1-.6-.1-.9-.7-1-.8-2-.2-3 .7-.8 1.6-1.2 2.9-1.2zm11-4.9c-.7-.8-.7-1.5-.3-2.2.5-1 .2-2-.4-2.9-.3-.4-.4-.7-.1-1.2.2-.3.3-.7.2-1.1-.1-.4-.3-.6-.7-.4-.4.2-.8.4-1.3.5-1.2.2-2.5.7-3.7-.2-.3-.2-.5-.1-.7.2-.3.4-.7.5-1.2.6-1.1.1-2.2.4-3.2 1-1.5 1-2.4 2.3-2.2 4.2.1 2.1 1.3 3.6 3 4.7 1.6 1 3.3 1.5 5.1 1.9.7.2 1.5.4 2.1.8.5.4.9.9.7 1.6-.1.7-.6 1-1.2 1.1-1.4.3-2.7.3-4.1-.2-1.1-.4-1.7-1.2-1.6-2.4 0-.2 0-.4-.2-.5-1.1-.3-2.3-.4-3 .7-.7 1-.7 2.1.2 3.1.2.2.2.4.1.6-.3.5-.4 1-.1 1.6.2.4.4.5.8.3.9-.5 1.9-.7 3-.5.9.2 1.8.3 2.7.3 2 0 3.9-.2 5.7-1.3 3.5-2 2.9-6.8-.1-8.4-.9-.4-1.7-.8-2.7-1.1-1.3-.4-2.7-.7-4-1.3-.7-.3-1.3-.7-1.8-1.2-.8-1-.4-2.3.9-2.6 1-.2 1.9 0 2.6.7.4.3.7.8 1 1.2 1 1.5 2.4 2.4 4.5 2.4zM223.9 73c0 .8 0 1.5-.3 2.2-.2.7-.6 1.3-1.1 1.8-.9.8-1.8 1.3-2.9.6-.1 0-.2-.1-.2-.1-1-.4-1-.4-.9-1.4 0-.7-.3-1.3-.8-1.8-.9-.8-1.1-1.8-.9-3 .1-.4 0-.8-.4-1.1-.4-.2-.5-.6-.6-1.1-.2-1 .1-1.3 1.1-1.2 1.3.1 2.4-.1 3.2-1.2.2-.4.6-.3.9-.2 1.3.4 2.5 0 3.2-1 .3-.4.6-.4 1-.3 1.3.3 2.4 0 3.2-1.1.3-.4.6-.5 1-.4 1.1.4 2 .1 2.8-.6.8-.8 1.6-.9 2.6-.4.1.1.2.1.4.1 1.1.4 1.5.9 1.2 2.1-.1.6 0 1.1.4 1.5.9.8 1.3 1.8 1.1 3.1-.1.8.1 1.5.7 2.1.4.3.3.5-.2.7-2.4.8-5.4-.2-6.9-2.2-.1-.1-.1-.3-.3-.3.4 1.8 1.1 3.5 1.6 5.3.3.8.6 1.7.9 2.5.5 1.3 1.4 2.1 2.8 2.4.7.2.9.7 1 1.3 0 2.5-2.1 3.5-3.8 3.2-.4-.1-.7 0-1 .3-2.3 2.2-7 1.1-8-1.9 0-.1-.2-.2.1-.4 1.5-.8 1.6-2.1 1.2-3.5-.6-2-1.3-4-2.1-6zm12.3-2c-1-.7-1.1-1.6-.9-2.6.1-1-.1-1.9-.8-2.5-.5-.5-.8-1-.5-1.7.1-.4 0-.9-.4-1.2-.4-.2-.6.2-.9.4-.9.7-1.9 1.2-3.2.8-.4-.1-.6 0-.8.3-.9 1.1-2 1.6-3.4 1.1-.3-.1-.5 0-.7.2-.9 1.2-2.1 1.5-3.5 1.1-.3-.1-.5-.1-.7.2-.8 1.2-1.9 1.4-3.2 1.3-.3 0-.6-.2-.8.1-.1.3 0 .6.1.9.1.2.3.4.5.5.4.3.5.6.4 1.1-.2 1-.1 2 .7 2.8.7.8 1.3 1.6.9 2.7 1.4-.2 2.4-1.3 2.6-2.5.1-.7 0-1.3-.1-2-.1-.6-.2-1.2.1-1.8.3-.7 1-.9 1.6-.4.5.4.8.9 1 1.4 1.1 2.6 2 5.3 2.6 8.1.2 1.1.2 2.2-.8 3-.4.3-.4.5-.2.9.7 1.2 2.3 1.7 3.7.7.9-.6 1.7-.9 2.8-.9 1.6 0 2.7-1.4 2.5-2.8 0-.3 0-.6-.5-.6-.9.1-1.5-.4-2-1-.6-.7-.9-1.4-1.2-2.3-.5-1.5-1.1-3.1-1.5-4.6-.3-1.1-.6-2.2-.6-3.3 0-.5.1-1.1.7-1.3.6-.2 1.1.1 1.4.6.3.5.6 1.1.9 1.6.8 1.9 2.3 2.4 4.2 1.7zm-37.4 13.6c2.6-1.5 5.4-1.4 7.3.1 1.4 1.1 2.2 2.7 1.5 4-.5.9-.3 1.4.4 2 .3.2.4.6.6.8.1.1.2.3.1.5s-.3.2-.5.2c-.6-.1-1.1-.1-1.7-.1-1.1.1-2.1.5-3 1-2 1.3-4.2 1.7-6.5 1.3-.4-.1-.6 0-.9.2-2.7 2.1-6.9.7-7.7-2.7-.1-.2-.2-.4.1-.5 1.4-.5 1.6-1.6 1.6-2.8 0-1.4-.4-2.8-.7-4.2-.5-3-1.7-5.6-3.9-7.8-.2-.2-.2-.4.1-.5.7-.4 1.4-.7 2.2-.7.8 0 1.6-.1 2-.9.2-.4.6-.4.9-.2.8.5 1.5.3 2.2 0 1.3-.5 2.6-.2 3.5.9.1.1.1.2.1.3-.6 2.5-.3 5 .2 7.4l.9 3.9c.1.5.3.9.6 1.3.5.7 1.2.7 1.7 0 .4-.6.4-1.5-.1-2.3-.1-.4-.5-.8-1-1.2zm-12.7-8.1c1.5 1.5 2.5 3.2 3.1 5.1.3 1 .5 2 .7 3 .2 1.2.6 2.5.7 3.7.1 1.2.1 2.4-1 3.2-.6.4-.5.8-.2 1.2.3.5.7.8 1.2 1 1 .3 2 .1 2.9-.5.4-.3.7-.3 1.2-.2 2.2.4 4.3-.1 6.3-1.2 1.3-.8 2.7-1.2 4.2-1.1.4 0 .9.2 1.1-.1.1-.4-.3-.8-.6-1.1l-.2-.2c-.5-.2-.5-.5-.3-1 .7-1.8-.1-3.6-1.8-4.1-1.2-.3-2.4-.1-3.5.5.2.3.5.5.6.7.5.7.7 1.5.5 2.3-.4 1.5-2.5 2.6-4 2-.9-.3-1.2-1.1-1.4-1.9-.4-1.5-.7-3-1-4.5-.6-2.5-.8-5.1-.2-7.6.2-1 0-1.2-1-.9-.1 0-.2.1-.4.2-.7.3-1.4.4-2.1 0-.3-.2-.6-.3-.8.1-.5.8-1.3 1-2.2 1-.6-.2-1.2-.1-1.8.4zm-15.8 1.9c.7.1 1.3-.1 1.7-.7.3-.4.7-.4 1.1-.1.6.4 1.2.4 1.8.2 1.9-.5 3.8-.9 5.7-.6 2.9.4 5.3 1.5 6.4 4.4.9 2.4 0 5.1-2.2 7-1.5 1.2-3.2 1.9-5.1 2.1-.5.1-.4.3-.4.6.1 1 .5 1.7 1.4 2.2.3.2.6.5 1 .7.6.3.6.7.5 1.3-.4 2.2-1.9 3.1-4.2 2.5-.6-.2-1-.2-1.5.3-1.5 1.2-4.3.7-5.6-.8-.6-.7-1-1.6-1.2-2.5 0-.1-.1-.3.1-.3 1.4-.5 1.7-1.7 1.6-3-.2-2.3-.5-4.7-1-7-.4-1.9-1.3-3.6-2.6-5-.4-.5-.2-.6.2-.8.9-.4 1.6-.5 2.3-.5zm6.5 18.1c1.9 0 3.1-1 3-2.5 0-.3-.1-.5-.5-.5-.7-.1-1.2-.5-1.6-1.1-.6-.9-.8-1.9-1-2.9-.1-.6.1-.7.6-.7 1.9-.1 3.7-.5 5.3-1.7 1.9-1.4 2.6-3.3 2.1-5.6-.4-2-1.6-3.2-3.5-3.7-.6-.2-1.2-.2-1.8-.2-1.6-.1-3.1.4-4.6.7-.6.2-1.3.2-1.8-.3-.3-.2-.6-.2-.8.1-.5.7-1.2.8-2 .8-.5 0-1 0-1.5.2-.4.1-.5.3-.1.6 1.4 1.6 2.2 3.4 2.6 5.5.2 1.4.4 2.9.6 4.4.2 1.1.3 2.1.1 3.2-.1.8-.4 1.6-1.2 2-.4.2-.4.4-.3.8.5 1.3 1.9 2 3.3 1.4 1.2-.5 2.2-.9 3.1-.5zM204 72.3c.9-.7 1.7-1.2 2.8-1.2.6 0 1.2-.3 1.5-.9.2-.4.6-.5 1.1-.3.6.3 1.2.3 1.8 0 1.5-.8 2.9-.6 4.2.4.2.1.3.2.2.4-.9 3.2-.3 6.2.7 9.3.4 1.1.6 2.2 1.1 3.2.5.9 1.1 1.7 2.1 2.2 1.1.5 1.4 1.2 1 2.4-.4 1.4-2.1 2.3-3.7 1.9-.4-.1-.6-.1-.9.2-1.9 1.8-6.8 1.4-7.9-2.1-.1-.3-.1-.4.2-.6.8-.3 1.1-1 1.2-1.8.1-.7.1-1.4-.1-2.1-.4-1.6-.9-3.3-1.3-4.9-.6-2.1-1.7-3.9-3.3-5.4-.2-.3-.4-.5-.7-.7zm.9 0c2.2 1.9 3.4 4.3 4.1 7.1.4 1.7 1 3.3 1.1 5.1.1 1.2 0 2.3-1.2 3-.3.2-.1.3-.1.5.5 1.3 1.9 1.8 3.3 1.3.6-.2 1.1-.8 1.6-1 .6-.2 1.3.1 1.9 0 1.4-.2 2.4-1.4 2.2-2.8 0-.2 0-.4-.3-.4-1.5 0-2.1-1-2.6-2.2-.5-.9-.7-2-1-3-1-3.2-1.8-6.4-.6-9.7.1-.3-.1-.3-.3-.3-.6 0-1.1.2-1.6.4-.7.3-1.4.5-2.1.1-.2-.2-.5-.2-.7.1-.5.9-1.3 1-2.2 1.1-.5.1-1.1.3-1.5.7zm-162 4c-.1-.3-.2-.4-.4-.1-.9.9-1.6 2-2 3.2-.1.3 0 .5.4.6.5.1 1 .3 1.5.4.4.1.7-.1.7-.5.1-.5.2-.9.2-1.3-.1-.8-.2-1.6-.4-2.3zm-18.7 2.1c-.2.9-.5 1.9-1.5 2.4s-2.1.2-3-.4c-.6-.4-.7-1-.7-1.7.1-1.2.5-2.2.9-3.3.1-.2.2-.4.5-.3.9.3 1.9.6 2.7 1.2.7.5 1.1 1.1 1.1 2.1zm-3 1.1c0 .4 0 .8.4 1 .4.2.8 0 1.1-.2.2-.2.4-.4.6-.7.2-.4.2-.7 0-1.1-.3-.4-.8-.7-1.3-.7-.4 0-.4.5-.5.8-.3.3-.4.6-.3.9zm65.3 5.7c-.1-.3-.2-.7-.5-.7s-.4.4-.5.6c-.5.7-.8 1.5-1 2.3-.3 1-.4 1.3.8 1.3.1 0 .3.1.4.1 1.2.1 1.2.1 1.2-1.1 0-.9-.1-1.7-.4-2.5zm44.4 6c.3 0 .5-.2.5-.5-.1-1.3-.4-2.5-1.1-3.5-.2-.3-.4-.3-.5 0-.5.8-.7 1.7-.9 2.7-.2 1.4-.2 1.4 1.3 1.4.1 0 .4-.1.7-.1zM23.3 73c-.5 0-1.2-.2-1.9-.4-.4-.1-.4-.3-.3-.7.3-.9.6-1.9 1-2.8.5-.9 1.1-1.2 2.1-.9 1.5.4 2.4 1.4 2.2 2.6-.2 1.4-1.4 2.3-3.1 2.2zm1.3-2.5c-.5 0-1 .7-1 1.4 0 .5.4.5.7.6.5 0 1.3-.7 1.3-1.1 0-.5-.5-.9-1-.9zm153.5 10c1 0 1.6.4 2 1.3.5 1.1.3 2.3-.4 3-.9.9-2.1 1-3.2 1.1-.3 0-.4-.2-.4-.4-.1-.9-.3-1.7-.4-2.6-.1-1.7.6-2.4 2.4-2.4zm.1 3.2c0 .2.1.4.1.7 0 .3.2.3.5.3.7-.1 1.3-1.5.9-2.1-.1-.2-.3-.2-.4-.2-.7-.1-1.1.3-1.1 1.3z"/><path class="st1" d="M41.8 86.5c.6 0 .9-.3 1-.8 0-.6-.6-1-1.7-1.1-.6 0-.7.4-.8.9-.1.5.6 1 1.5 1zM86.3 95c.7 0 1-.2 1.1-.8.1-.7-.3-.9-.9-.9-.2 0-.5-.1-.7-.1-.5-.1-.7.3-.8.7-.1.4.1.7.4.9.3.1.6.1.9.2zm45.2.6h-.4c-.6 0-.9.3-.9.9 0 .6.4.8.8.8s.8.1 1.2-.1c.3-.1.4-.4.4-.7 0-.3-.1-.6-.4-.8-.3-.2-.5-.1-.7-.1zM21.2 79.5c0 .4 0 .8.4 1 .4.2.8 0 1.1-.2.2-.2.4-.4.6-.7.2-.4.2-.7 0-1.1-.3-.4-.8-.7-1.3-.7-.4 0-.4.5-.5.8-.3.3-.4.6-.3.9zm3.4-9c-.5 0-1 .7-1 1.4 0 .5.4.5.7.6.5 0 1.3-.7 1.3-1.1 0-.5-.5-.9-1-.9zm153.6 13.2c0 .2.1.4.1.7 0 .3.2.3.5.3.7-.1 1.3-1.5.9-2.1-.1-.2-.3-.2-.4-.2-.7-.1-1.1.3-1.1 1.3z"/><path class="st0" d="M165.4 68.2c0-.1 0-.3-.1-.4.5-.1 1-.1 1.5-.2l.3 2.3c-.5.1-1.1.1-1.6.2-.3-.6-.7-.8-1.2-.8-.6.1-1 .6-.8 1.9.1 1.2.6 1.8 1.3 1.7.6-.1 1-.6 1-1.6.6.1 1.2.2 1.8.4-.1 1.3-.9 2.5-2.9 2.7-2.9.3-3.9-1.5-4-2.9-.2-1.9 1-3.5 2.8-3.7.7 0 1.4.1 1.9.4zm8.2 5-.2-1.4c.2 0 .4-.1.6-.1-.1-.2-.2-.5-.4-.8-.6.1-1.1.2-1.7.2-.1.3-.1.6-.2.8.2 0 .4-.1.5-.1.1.5.1.9.2 1.4-.9.1-1.7.2-2.6.4l-.2-1.5c.2 0 .3 0 .5-.1.3-1.2.5-2.3.8-3.5-.2 0-.4.1-.5.1l-.2-1.5c1.5-.2 3.1-.4 4.6-.7.1.5.2 1 .2 1.5-.2 0-.4.1-.5.1.6 1 1.2 2.1 1.7 3.1.2 0 .3-.1.5-.1.1.5.2 1 .2 1.5-1.1.3-2.2.5-3.3.7zm-.4-3c-.3-.6-.5-1.1-.8-1.7l-.3 1.8c.3 0 .7-.1 1.1-.1zm-11.4 40.6c-2.9.4-4.3-1.3-4.5-2.8-.2-1.5.9-3.4 3.7-3.7 2.8-.3 4.3 1.2 4.5 2.7.2 1.4-.8 3.4-3.7 3.8zm.6-3.4c-.1-1.2-.4-1.8-1.2-1.7-.8.1-.9.7-.7 1.9.1 1.2.4 1.8 1.2 1.7.7-.1.8-.7.7-1.9zm-80.9-3.8c-.4-.4-1.2-.7-1.9-.9-2-.3-3.7.8-4.1 2.6-.2 1.3.3 3.4 3.6 3.9 2.2.4 3.4-.5 3.9-1.7l-1.8-.9c-.3.9-.8 1.3-1.6 1.2-.8-.1-1.1-.8-.9-2 .2-1.3.7-1.7 1.4-1.5.6.1 1 .5 1.1 1.1l1.8.3c.1-.8.2-1.5.3-2.3-.6-.1-1.1-.2-1.7-.3 0 .2 0 .3-.1.5zm92 5.5c.8-.1 1.6-.3 2.4-.4-.3-1.6-.5-3.2-.8-4.8.2 0 .4-.1.6-.1l-.3-1.5c-1 .2-1.9.3-2.9.5l.2 1.5c.2 0 .4-.1.6-.1l.3 1.8c-1.1-.9-2.1-1.9-3.1-2.8-1.1.2-2.3.3-3.4.5l.2 1.5.6-.1c.2 1.1.3 2.2.5 3.2l-.6.1c.1.5.1 1 .2 1.5 1-.1 2-.3 3-.4-.1-.5-.1-1-.2-1.5-.2 0-.4.1-.6.1l-.3-2.2c1.1 1 2.4 2.1 3.6 3.2zm-55.9-2.7c2.1.1 2.8.9 2.8 1.7 0 .6-.5 1.1-1.4 1.3 1 .2 1.6.9 1.6 1.6 0 .8-.7 1.8-3.3 1.7-1.7-.1-3.4-.1-5.1-.2 0-.5.1-1 .1-1.5h.6c.1-1.1.1-2.2.1-3.3h-.6c0-.5.1-1 .1-1.5 1.7.1 3.4.2 5.1.2zm-1.8 2.5h.7c.7 0 1-.1 1-.5s-.2-.6-.9-.6h-.7c-.1.3-.1.7-.1 1.1zm1.7 1.8c0-.4-.2-.6-1-.7h-.8v1.2h.6c.9.1 1.2 0 1.2-.5zM114.3 75h.5c.4-1.1.9-2.2 1.3-3.3h-.5c0-.5 0-1 .1-1.5 1.5.1 3.1.1 4.7.1v1.5h-.5l1.2 3.4h.5v1.5c-1.1 0-2.3 0-3.4-.1v-1.4h.6c-.1-.3-.2-.5-.2-.8h-1.7c-.1.3-.2.5-.3.8h.5v1.4c-.9 0-1.7-.1-2.6-.1l-.2-1.5zm2.7-1.4h1.2l-.5-1.8c-.3.6-.5 1.2-.7 1.8zm66.9-2 2.1-.4c-.3-1.6-.6-3.3-.9-4.9.2 0 .4-.1.6-.1l-.3-1.5-2.6.5.3 1.5c.2 0 .4-.1.5-.1l.3 1.8c-1-1-2-1.9-2.9-2.9-1 .2-2 .3-3 .5.1.5.2 1 .2 1.5l.6-.1.6 3.3c-.2 0-.4.1-.6.1.1.5.2 1 .2 1.5l2.7-.4-.3-1.5c-.2 0-.4.1-.6.1-.1-.7-.2-1.5-.4-2.2 1.3 1.1 2.4 2.2 3.5 3.3zM154.2 69c.1.5.1 1 .1 1.5.2 0 .4 0 .6-.1l.3 3.3-.6.1c.1.5.1 1 .1 1.5 1.3-.1 2.5-.2 3.8-.4-.1-.5-.1-1-.2-1.5l-.6.1-.3-3.3.6-.1c-.1-.5-.1-1-.2-1.5-1.1.2-2.3.3-3.6.4zm1.3 42.3-.1-1.5c-.2 0-.4.1-.7.1l-.3-3.3c.2 0 .4 0 .7-.1l-.1-1.5c-1.4.1-2.7.3-4.1.4 0 .5.1 1 .1 1.5l.7-.1.3 3.3-.7.1c0 .5.1 1 .1 1.5 1.3-.1 2.7-.2 4.1-.4zm-18.5 1.3v-1.4h.6c-.1-.3-.2-.5-.3-.8-.6 0-1.2.1-1.9.1-.1.3-.2.5-.3.8h.6c0 .5 0 .9.1 1.4-1 0-1.9.1-2.9.1v-1.5h.6c.4-1.1.9-2.2 1.3-3.3h-.6v-1.5c1.7-.1 3.5-.1 5.2-.2 0 .5.1 1 .1 1.5h-.6c.5 1.1 1 2.1 1.5 3.2h.5c0 .5.1 1 .1 1.5l-4 .1zm-.1-2.9c-.2-.6-.4-1.1-.7-1.7l-.6 1.8c.5-.1.9-.1 1.3-.1zm-63.5-37c.1-.5.2-1 .2-1.5.2 0 .3.1.5.1.2-1.1.3-2.2.5-3.3-.2 0-.3-.1-.5-.1.1-.5.2-1 .2-1.5 1.2.2 2.4.4 3.6.5 1.8.3 2.5.5 2.9 1.1.3.4.4.9.3 1.3-.1.7-.5 1.2-1.1 1.3.2.5.5 1 .7 1.6l.5.1-.2 1.5-2.4-.3c-.3-.9-.7-1.9-1-2.8l-.8-.1c-.1.4-.1.7-.2 1.1.2 0 .3.1.5.1-.1.5-.2 1-.2 1.5-1.1-.3-2.3-.4-3.5-.6zm3.7-3.3c.2 0 .5.1.7.1.5.1.8-.1.9-.5.1-.4-.2-.6-.7-.7-.2 0-.5-.1-.7-.1-.1 0-.2 1.2-.2 1.2zm70.6 39c.5 0 .9-.1 1.4-.1l-.2-2.6c-2.4.2-4.8.3-7.2.5l.1 2.7c.5 0 .9-.1 1.4-.1 0-.4-.1-.8-.1-1.1.3 0 .6 0 .8-.1.1 1.1.1 2.2.2 3.3h-.6l.1 1.5 4.2-.3c0-.5-.1-1-.1-1.5-.2 0-.4 0-.6.1l-.2-3.3.8-.1c-.1.3 0 .7 0 1.1zm-18.2-38.1-1 2.5c-.3-.8-.6-1.6-1-2.5h-3.9v1.5h.5v3.3h-.5v1.5h2.6v-1.5h-.5v-3.6c.6 1.7 1.3 3.4 1.9 5.1h1c.6-1.7 1.3-3.4 1.9-5.1l.1 3.6h-.5v1.5c1.1 0 2.3 0 3.4-.1V75h-.5c0-1.1-.1-2.2-.1-3.3h.5v-1.5c-1.3 0-2.6.1-3.9.1zm-2.8 42.5h-4v-1.5h.6V108h-.6v-1.5h4c2 0 2.8.1 3.4.6.4.4.6.8.6 1.2 0 .6-.4 1.2-1 1.5.3.5.7.9 1 1.4h.5v1.5h-2.7c-.5-.8-1.1-1.7-1.6-2.6h-.9v1.1h.5c.2.6.2 1.1.2 1.6zm-.6-3.7h.8c.6 0 .9-.2.9-.6 0-.4-.3-.6-.9-.6h-.8v1.2zm9.7-39c0 .5 0 1 .1 1.5h.5c0 1.1.1 2.2.1 3.3h-.5c0 .5 0 1 .1 1.5l6.3-.3c0-.7-.1-1.4-.1-2-.6 0-1.1.1-1.7.1v.5c-.5 0-1 .1-1.5.1v-1l1.3-.1-.1-1.3-1.3.1v-1c.5 0 1 0 1.5-.1v.5c.6 0 1.1-.1 1.7-.1 0-.7-.1-1.4-.1-2-2.2.2-4.2.3-6.3.3zm15.5-.1c.4.3.6.8.6 1.2.1.6-.3 1.3-.8 1.6.3.5.7.9 1 1.4h.5c0 .5.1 1 .1 1.5-.8.1-1.6.1-2.4.2-.5-.8-1.1-1.7-1.6-2.5l-.8.1c0 .4.1.7.1 1.1h.5c0 .5.1 1 .1 1.5-1.2.1-2.4.2-3.6.2l-.1-1.5h.5l-.2-3.3h-.5l-.1-1.5c1.2-.1 2.4-.2 3.6-.2 1.8-.4 2.5-.3 3.1.2zm-2.1 1.5c0-.4-.3-.6-.8-.6-.2 0-.5 0-.7.1 0 .4.1.8.1 1.2h.7c.5-.1.8-.4.7-.7zm-15.4 49.9c0 .6-.5 1.2-2.5 1.2h-3.9v-1h.5v-2.2h-.5v-1h4c1.7 0 2.2.5 2.2 1.1 0 .4-.4.8-1 .9.7 0 1.2.4 1.2 1zM130 120h.5c.6 0 .8-.1.8-.4 0-.2-.2-.4-.7-.4h-.6v.8zm1.4 1.2c0-.3-.2-.4-.8-.4h-.6v.8h.5c.6.1.9-.1.9-.4zm-30.2-11.9-1.7-.1-.1 1c-.6-.1-1.1-.1-1.7-.2l.3-3.3.7.1c.1-.5.1-1 .1-1.5-1.4-.1-2.7-.3-4.1-.4-.1.5-.1 1-.2 1.5.2 0 .4.1.6.1l-.3 3.3c-.2 0-.4-.1-.7-.1-.1.5-.1 1-.2 1.5 2.3.2 4.7.5 7 .7l.3-2.6zM70.1 66.1c-.4-.4-1-.8-1.8-.9-1.9-.3-3.6.8-4 2.7-.2 1.1-.1 3.4 3.2 4 1.9.3 3.5-.5 3.8-2.4 0-.2.1-.3.1-.5-1-.2-1.9-.3-2.9-.5l-.2 1.2.7.1c-.1.5-.5.7-1 .6-.8-.2-1.1-.7-.9-1.9.2-1.2.6-1.8 1.5-1.6.6.1.9.4 1.2 1l1.5.3c.1-.7.2-1.5.4-2.2l-1.5-.3c-.1.1-.1.2-.1.4zM92 108.9c-.6-.1-1.3-.1-1.9-.2l-.1.5-1.7-.2c0-.3.1-.7.1-1l1.4.2c.1-.4.1-.8.2-1.3l-1.4-.2.1-1c.5.1 1.1.1 1.6.2l-.1.5c.6.1 1.3.1 1.9.2.1-.7.1-1.3.2-2-2.3-.3-4.6-.5-6.8-.9l-.2 1.5c.2 0 .4.1.6.1-.1 1.1-.3 2.2-.4 3.3-.2 0-.4-.1-.6-.1l-.2 1.5c2.3.3 4.7.6 7 .9.1-.7.2-1.3.3-2zm.1-35.4h.5c.5-1.1 1-2.1 1.5-3.2-.2 0-.3 0-.5-.1l.2-1.5c1.5.2 3.1.3 4.6.4 0 .5-.1 1-.1 1.5h-.5c.3 1.1.6 2.3 1 3.4h.5l-.3 1.7c-1.1-.1-2.3-.2-3.4-.3 0-.5.1-.9.1-1.4.2 0 .4 0 .6.1l-.2-.8-1.7-.2c-.1.3-.2.5-.4.8.2 0 .4 0 .5.1 0 .5-.1.9-.1 1.4-.9-.1-1.7-.2-2.6-.2.2-.6.2-1.2.3-1.7zm2.7-1.2c.4 0 .8.1 1.2.1l-.4-1.8c-.3.6-.6 1.1-.8 1.7zm7.6 48.6h.4l-.1 1c-1-.1-2-.1-3-.2l.1-.9h.5c-.1-.2-.1-.4-.2-.5-.5 0-1-.1-1.5-.1-.1.2-.2.4-.3.5h.5c0 .3 0 .6-.1.9-.8-.1-1.5-.1-2.3-.2 0-.3.1-.7.1-1h.4l1.2-2.1h-.5c0-.3.1-.7.1-1 1.4.1 2.7.2 4.1.3 0 .3 0 .7-.1 1h-.5c.6.7.9 1.5 1.2 2.3zm-2.4-1.2c-.1-.4-.3-.8-.4-1.2-.2.4-.4.8-.6 1.1.3.1.6.1 1 .1zm25.6.8c0 1-1 2.2-3.2 2.2s-3.2-1.3-3.2-2.3c0-1 1-2.2 3.2-2.2s3.2 1.3 3.2 2.3zm-2.5 0c0-.8-.1-1.2-.7-1.2s-.7.4-.7 1.2c0 .8.1 1.2.7 1.2s.7-.4.7-1.2zm-5.8 1h.4v1c-.7 0-1.4 0-2.1-.1l-1.2-1.8h-.7v.7h.4v1c-1 0-2.1-.1-3.1-.1v-1h.5l.1-2.2h-.5v-1c1 0 2.1.1 3.1.1 1.6.1 2.2.2 2.7.5.3.3.4.6.4.8 0 .4-.3.8-.9 1 .4.4.7.8.9 1.1zm-2.2-2c0-.2-.2-.4-.7-.4h-.6v.8h.6c.5 0 .7-.1.7-.4zm-21 .7-1.3-.1c.1-.7.1-1.5.2-2.2.2 0 .4 0 .5.1l.1-1c-1.1-.1-2.2-.2-3.2-.3 0 .3-.1.7-.1 1 .2 0 .3 0 .5.1l-.2 2.2c-.2 0-.3 0-.5-.1 0 .3-.1.7-.1 1 1.8.2 3.6.3 5.5.5.1-.6.1-1.1.1-1.7-.5 0-.9-.1-1.4-.1l-.1.6zm61.9-1.6c0 .5-.3 1.4-2.2 1.5l-1.3.1v.6h.6c0 .3.1.7.1 1-1.1.1-2.2.1-3.3.2l-.1-1h.6c-.1-.7-.1-1.5-.1-2.2h-.5l-.1-1c1.3-.1 2.5-.2 3.8-.2 1.7-.3 2.4.2 2.5 1zm-2.3.1c0-.3-.2-.4-.8-.3h-.5c0 .3 0 .5.1.8h.6c.4-.1.6-.2.6-.5zM89.8 72.8c-.6-.1-1.1-.1-1.7-.2l-.1.5c-.5-.1-1-.1-1.5-.2l.1-1 1.4.1.2-1.3-1.3-.1.1-1c.5.1 1 .1 1.5.2l-.1.5c.6.1 1.1.1 1.7.2.1-.7.2-1.4.2-2-2-.2-4.1-.5-6.1-.7-.1.5-.1 1-.2 1.5l.5.1-.5 3.2-.5-.1c-.1.5-.1 1-.2 1.5 2.1.3 4.2.5 6.3.7.1-.6.1-1.2.2-1.9zm20.2 37.6c-.6 0-1.3-.1-1.9-.1v.5c-.6 0-1.1-.1-1.7-.1 0-.3 0-.7.1-1l1.4.1c0-.4.1-.9.1-1.3l-1.4-.1.1-1c.5 0 1.1.1 1.6.1v.5c.6 0 1.3.1 1.9.1 0-.7.1-1.3.1-2-2.3-.1-4.6-.3-6.9-.4l-.1 1.5h.6c-.1 1.1-.2 2.2-.2 3.3h-.6l-.1 1.5c2.3.2 4.7.3 7 .5-.1-.8 0-1.4 0-2.1zm29.4 10.6v.3h-1.3v-.7h1.1v-.9h-1.1v-.7h1.3v.3c.5 0 1 0 1.5-.1 0-.5 0-.9-.1-1.4-1.8.1-3.6.1-5.4.2v1h.4c0 .7 0 1.5.1 2.2h-.4v1c1.8 0 3.6-.1 5.5-.2 0-.5 0-.9-.1-1.4-.5.4-1 .4-1.5.4zm23.6-1.1c0 .3.1.7.1 1l-3 .3c0-.3-.1-.6-.1-.9h.5c-.1-.2-.2-.3-.3-.5-.5 0-1 .1-1.5.1-.1.2-.1.4-.2.6h.5c0 .3.1.6.1.9l-2.3.2c0-.3-.1-.7-.1-1h.4c.3-.8.6-1.5.9-2.3h-.5c0-.3-.1-.7-.1-1 1.4-.1 2.7-.2 4.1-.3l.1 1h-.5c.4.7.9 1.4 1.3 2.1.3-.2.4-.2.6-.2zm-3-.7c-.2-.4-.4-.8-.6-1.1l-.4 1.2c.3-.1.6-.1 1-.1zm-59-47.1 1.2.1c0-.4.1-.8.1-1.2.2 0 .5 0 .7.1-.1 1.1-.2 2.2-.2 3.3h-.6c0 .5-.1 1-.1 1.5 1.2.1 2.5.2 3.7.2l.1-1.5h-.6c.1-1.1.1-2.2.2-3.3h.7c0 .4 0 .8-.1 1.2.4 0 .8.1 1.2.1l.2-2.7c-2.1-.1-4.3-.2-6.4-.4 0 .8-.1 1.7-.1 2.6zm2.8 47.4 1.1.1v-.8h.6l-.1 2.2h-.5l-.1 1c1.1.1 2.2.1 3.2.2 0-.3 0-.7.1-1h-.5c0-.7.1-1.5.1-2.2h.6v.8c.4 0 .7 0 1.1.1 0-.6 0-1.2.1-1.8-1.9-.1-3.8-.2-5.6-.3 0 .5 0 1.1-.1 1.7zm39.2 1.7c0 .4 0 .7.1 1.1h.8c0 .5-.1.6-.8.7v.6h.4c1-.1 1.6-.4 1.6-1.1 0-.5 0-.9-.1-1.4l-2 .1z"/><path class="st3" d="M68.3 65.2c.7.1 1.4.5 1.8.9 0-.2.1-.3.1-.4l1.5.3c-.1.7-.2 1.5-.4 2.2l-1.5-.3c-.2-.6-.6-.9-1.2-1-.9-.2-1.3.4-1.5 1.6-.2 1.2.1 1.8.9 1.9.6.1.9-.1 1-.6l-.7-.1.2-1.2c1 .2 1.9.3 2.9.5 0 .2-.1.3-.1.5-.3 2-1.9 2.8-3.8 2.4-3.3-.6-3.4-2.9-3.2-4 .4-2 2.1-3.1 4-2.7m.1-.6c-2.3-.4-4.2.9-4.6 3.1-.3 1.7.4 4 3.7 4.6 2.3.4 4.1-.7 4.4-2.9 0-.2.1-.3.1-.5l.1-.5h-.2v-.2c.1-.7.2-1.5.4-2.2l.1-.5-.6-.1-1.5-.3c-.2 0-.4-.1-.6-.1v.1c-.4-.3-.8-.4-1.3-.5zm-.7 5c-.1-.1-.2-.4-.1-1.1.2-1.3.5-1.3.8-1.2.3.1.5.2.7.6-.2 0-.4-.1-.6-.1-.2 0-.4-.1-.6-.1 0 .2-.1.4-.1.5l-.2 1.2c.2.1.2.2.1.2zM78 66.9c1.8.3 2.5.5 2.9 1.1.3.4.4.9.3 1.3-.1.7-.5 1.2-1.1 1.3.2.5.5 1 .7 1.6l.5.1-.2 1.5-2.4-.3c-.3-.9-.7-1.9-1-2.8l-.8-.1c-.1.4-.1.7-.2 1.1.2 0 .3.1.5.1-.1.5-.2 1-.2 1.5-1.2-.2-2.4-.4-3.5-.5.1-.5.2-1 .2-1.5.2 0 .3.1.5.1.2-1.1.3-2.2.5-3.3-.2 0-.3-.1-.5-.1.1-.5.2-1 .2-1.5 1.2 0 2.4.2 3.6.4m-.9 2.5c.2 0 .5.1.7.1.5.1.8-.1.9-.5.1-.4-.2-.6-.7-.7-.2 0-.5-.1-.7-.1l-.2 1.2m1-3.1c-1.2-.2-2.4-.4-3.5-.5l-.6-.1-.1.5c-.1.5-.2 1-.2 1.5 0 .2-.1.4-.1.5.2 0 .3.1.5.1-.1.7-.2 1.5-.3 2.2-.2 0-.3-.1-.5-.1l-.1.5c-.1.5-.2 1-.2 1.5l-.1.5.6.1c1.2.2 2.4.4 3.6.5.2 0 .4.1.6.1 0-.2.1-.4.1-.5.1-.3.1-.6.1-.9.2.4.3.9.5 1.3 0 .1.1.2.1.3.1 0 .2 0 .3.1l2.4.3c.2 0 .4.1.6.1 0-.2.1-.4.1-.5.1-.5.1-1 .2-1.5 0-.2.1-.4.1-.5-.2 0-.4-.1-.6-.1h-.2c-.1-.3-.2-.5-.3-.8.5-.3.9-.9 1-1.5.1-.4 0-1.1-.4-1.7-.9-.9-1.8-1.1-3.6-1.4zm-.4 2.5h.2c.1 0 .2.1.2.1h-.2l-.2-.1c0 .1 0 0 0 0zm12.6-.4c-.1.7-.1 1.4-.2 2-.6-.1-1.1-.1-1.7-.2l.1-.5c-.5-.1-1-.1-1.5-.2l-.1 1 1.3.1L88 72l-1.3-.2-.1 1c.5.1 1 .1 1.5.2l.1-.5c.6.1 1.1.1 1.7.2-.1.7-.2 1.4-.2 2-2.1-.2-4.2-.5-6.3-.7.1-.5.1-1 .2-1.5l.5.1.4-3.3-.5-.1c.1-.5.1-1 .2-1.5 2 .3 4 .5 6.1.7m.6-.5-.6-.1c-2-.2-4.1-.5-6.1-.7-.2 0-.4 0-.6-.1 0 .2-.1.4-.1.5-.1.5-.1 1-.2 1.5 0 .2-.1.4-.1.5.2 0 .3 0 .5.1-.1.7-.2 1.5-.3 2.2-.2 0-.3 0-.5-.1 0 .2-.1.4-.1.5-.1.5-.1 1-.2 1.5 0 .2-.1.4-.1.5.2 0 .4.1.6.1 2.1.3 4.2.5 6.3.7l.6.1.1-.5c.1-.7.1-1.4.2-2l.1-.5-.6-.1-1.3-.1c0-.4.1-.8.1-1.2l1.4.3.6.1.1-.5c.1-.7.1-1.4.2-2v-.7zm7.5 1.3c0 .5-.1 1-.1 1.5h-.5c.3 1.1.6 2.3 1 3.4h.5l-.3 1.6c-1.1-.1-2.3-.2-3.4-.3 0-.5.1-.9.1-1.4.2 0 .4 0 .6.1l-.2-.8-1.7-.2c-.1.3-.2.5-.4.8.2 0 .4 0 .5.1 0 .5-.1.9-.1 1.4-.9-.1-1.7-.2-2.6-.2.1-.5.1-1 .2-1.5.2 0 .3 0 .5.1.5-1.1 1-2.1 1.5-3.2-.2 0-.3 0-.5-.1l.2-1.5c1.6-.1 3.1.1 4.7.2m-3.6 3.1c.4 0 .8.1 1.2.1l-.4-1.8c-.3.6-.6 1.1-.8 1.7m4.2-3.6c-.2 0-.4 0-.6-.1-1.5-.1-3.1-.3-4.6-.4-.2 0-.4 0-.6-.1 0 .2 0 .4-.1.5l-.1 1.7c0 .2 0 .4-.1.5h.3c-.3.7-.7 1.4-1 2.1h-.1l-.6-.1-.1.6c-.1.5-.1 1-.2 1.5l-.1.6.6.1c.9.1 1.7.2 2.6.2.2 0 .4 0 .6.1.2 0 .4 0 .5.1 1.1.1 2.3.2 3.4.3.2 0 .4 0 .6.1v-.6l.1-1.5v-.6h-.7c-.2-.8-.4-1.5-.6-2.3h.3v-.6l.1-1.5c.3-.2.4-.4.4-.6zm8.6 1.1-.2 2.7c-.4 0-.8-.1-1.2-.1 0-.4.1-.8.1-1.2h-.7c-.1 1.1-.1 2.2-.2 3.3h.6l-.1 1.5c-1.2-.1-2.5-.2-3.7-.2 0-.5.1-1 .1-1.5h.6c.1-1.1.2-2.2.2-3.3-.2 0-.5 0-.7-.1 0 .4-.1.8-.1 1.2l-1.2-.1c.1-.9.1-1.8.2-2.7 2 .3 4.2.4 6.3.5m.6-.5h-.6c-2.1-.1-4.3-.2-6.4-.4h-.6v.6c-.1.9-.1 1.8-.2 2.7v.6h.6l1.2.1h.2c0 .3-.1.7-.1 1.1h-.6v.6c0 .5-.1 1-.1 1.5v.6h.6c1.2.1 2.5.2 3.7.2h.6v-.6l.1-1.5v-.6h-.6V73h.2c.4 0 .8.1 1.2.1h.6v-.6c.1-.9.1-1.8.1-2.7.1-.1.1-.3.1-.5zm12.1 1v1.5h-.5l1.2 3.4h.5v1.5c-1.1 0-2.3 0-3.4-.1v-1.4h.6c-.1-.3-.2-.5-.2-.8h-1.7c-.1.3-.2.5-.3.8h.5v1.4c-.9 0-1.7-.1-2.6-.1 0-.5 0-1 .1-1.5h.5c.4-1.1.9-2.2 1.3-3.3h-.5c0-.5 0-1 .1-1.5 1.3 0 2.9.1 4.4.1m-3.3 3.3h1.2l-.5-1.8c-.3.6-.5 1.2-.7 1.8m3.9-3.9h-.6c-1.5 0-3.1-.1-4.6-.1h-.6v.6c0 .5 0 1-.1 1.5v.6h.3c-.3.7-.6 1.5-.9 2.2h-.7v.6c0 .5 0 1-.1 1.5v.6h.6c.9 0 1.7.1 2.6.1h1.1l3.4.1h.6v-2.7h-.7c-.3-.7-.5-1.5-.8-2.2h.3v-2.1c.2-.3.2-.5.2-.7zm12.5.5v1.5h-.5c0 1.1.1 2.2.1 3.3h.5v1.5c-1.1 0-2.3.1-3.4.1v-1.5h.5l-.1-3.6c-.6 1.7-1.2 3.4-1.9 5.1h-1c-.7-1.7-1.3-3.4-1.9-5.1v3.6h.5v1.5h-2.6v-1.5h.5v-3.3h-.5v-1.5h3.9c.3.8.6 1.6 1 2.5l1-2.5 3.9-.1m.5-.6h-.6c-1.3 0-2.6.1-3.9.1h-.4c-.1.1-.1.2-.1.3-.1.4-.3.8-.4 1.1-.1-.4-.3-.8-.4-1.1-.1-.1-.1-.2-.1-.4H123.1v2.7h.5v2.2h-.5v2.7h3.7V76l.3.9c.1.1.1.2.1.4H129c0-.1.1-.2.1-.4.1-.3.2-.6.4-.9V77.3h.6c1.1 0 2.3 0 3.4-.1h.6v-2.7h-.5l-.1-2.2h.5v-2.1c-.1-.2-.1-.4-.1-.6zm8.1.3c0 .7.1 1.4.1 2-.6 0-1.1.1-1.7.1v-.5c-.5 0-1 0-1.5.1v1l1.3-.1.1 1.3-1.3.1v1c.5 0 1 0 1.5-.1v-.5c.6 0 1.1-.1 1.7-.1 0 .7.1 1.4.1 2l-6.3.3c0-.5 0-1-.1-1.5h.5c0-1.1-.1-2.2-.1-3.3h-.5c0-.5 0-1-.1-1.5 2.2-.1 4.2-.2 6.3-.3m.5-.6h-.6c-2 .1-4.1.2-6.2.3h-.6v.6c0 .5 0 1 .1 1.5v.6h.5c0 .7.1 1.5.1 2.2h-.5v.6c0 .5 0 1 .1 1.5v.6h.6l6.3-.3h.6v-.6c0-.7-.1-1.4-.1-2v-.6h-.6c-.4 0-.9.1-1.3.1l-.1-1.2c.4 0 .9 0 1.3-.1h.6v-.6c0-.7-.1-1.4-.1-2-.1-.2-.1-.4-.1-.6zm5.7.2c1.8-.1 2.5 0 3.1.5.4.3.6.8.6 1.2.1.6-.3 1.3-.8 1.6.3.5.7.9 1 1.4h.5c0 .5.1 1 .1 1.5-.8.1-1.6.1-2.4.2-.5-.8-1.1-1.7-1.6-2.5l-.8.1c0 .4.1.7.1 1.1h.5c0 .5.1 1 .1 1.5-1.2.1-2.4.2-3.6.2l-.1-1.5h.5l-.2-3.3h-.5l-.1-1.5c1.2-.3 2.4-.4 3.6-.5m-.4 2.7h.7c.5 0 .8-.3.8-.7 0-.4-.3-.6-.8-.6-.2 0-.5 0-.7.1v1.2m.3-3.3c-1.2.1-2.4.2-3.6.2h-.6v.6l.1 1.5v.6h.5c0 .7.1 1.5.1 2.2h-.5v.6l.1 1.5v.6h.6c1.2-.1 2.4-.2 3.6-.2h.6v-.6c0-.3-.1-.6-.1-1 .2.4.5.8.8 1.2.1.1.1.2.2.3h.3c.8-.1 1.6-.1 2.4-.2.2 0 .4 0 .6-.1 0-.2 0-.4-.1-.5 0-.5-.1-1-.1-1.5 0-.2 0-.4-.1-.5-.2 0-.4 0-.6.1h-.1c-.2-.2-.3-.5-.5-.7.4-.4.7-1.1.6-1.7 0-.4-.2-1.1-.8-1.6-.7-.8-1.6-.9-3.4-.8zm.2 2.6h.4s0 .1-.2.1h-.1l-.1-.1zm9.6-2.8c.1.5.1 1 .2 1.5l-.6.1.3 3.3.6-.1c.1.5.1 1 .2 1.5-1.2.1-2.5.2-3.8.4-.1-.5-.1-1-.1-1.5l.6-.1-.3-3.3c-.2 0-.4 0-.6.1-.1-.5-.1-1-.1-1.5 1.2-.2 2.4-.3 3.6-.4m.5-.7-.6.1c-1.2.1-2.5.2-3.7.3-.2 0-.4 0-.6.1 0 .2 0 .4.1.5.1.5.1 1 .1 1.5 0 .2 0 .4.1.5.2 0 .4 0 .6-.1.1.7.1 1.5.2 2.2-.2 0-.4 0-.6.1v.5c.1.5.1 1 .1 1.5 0 .2 0 .4.1.5.2 0 .4 0 .6-.1 1.3-.1 2.5-.2 3.8-.4l.6-.1-.1-.6c-.1-.5-.1-1-.2-1.5l-.1-.6-.6.1c-.1-.7-.1-1.5-.2-2.2l.6-.1-.1-.6c-.1-.5-.1-1-.2-1.5.2.3.1.1.1-.1zm5.1-.1c.7-.1 1.4 0 1.9.3 0-.1 0-.3-.1-.4.5-.1 1-.1 1.5-.2l.3 2.3c-.5.1-1.1.1-1.6.2-.3-.6-.7-.8-1.2-.8-.6.1-1 .6-.8 1.9.1 1.2.6 1.8 1.3 1.7.6-.1 1-.6 1-1.6.6.1 1.2.2 1.8.4-.1 1.3-.9 2.5-2.9 2.7-2.9.3-3.9-1.5-4-2.9-.2-1.8 1-3.4 2.8-3.6m-.1-.5c-2.1.2-3.5 2.1-3.3 4.3.2 1.8 1.5 3.7 4.7 3.4 2-.2 3.2-1.4 3.4-3.2 0-.2 0-.3.1-.5-.2 0-.3-.1-.5-.1-.6-.1-1.2-.2-1.8-.4-.2 0-.3-.1-.5-.1h.1c.5-.1 1.1-.1 1.6-.2.2 0 .4-.1.6-.1 0-.2-.1-.4-.1-.5-.1-.8-.2-1.5-.3-2.3 0-.2-.1-.4-.1-.5-.2 0-.4.1-.6.1-.5.1-1 .1-1.5.2-.2 0-.4.1-.6.1v.1c-.3-.4-.7-.4-1.2-.3zm1.4 5c-.2 0-.5.1-.7-1.2-.1-1.2.2-1.3.3-1.3.3 0 .5.1.6.5.1.1.1.2.2.4h.1v.6c-.1.9-.4 1-.5 1zm10-5.9c.1.5.2 1 .2 1.5-.2 0-.4.1-.5.1.6 1 1.2 2.1 1.7 3.1.2 0 .3-.1.5-.1.1.5.2 1 .2 1.5-1.1.2-2.3.4-3.4.5l-.2-1.4c.2 0 .4-.1.6-.1-.1-.2-.2-.5-.4-.8-.6.1-1.1.2-1.7.2-.1.3-.1.6-.2.8.2 0 .4-.1.5-.1.1.5.1.9.2 1.4-.9.1-1.7.2-2.6.4l-.2-1.5c.2 0 .3 0 .5-.1.3-1.2.5-2.3.8-3.5-.2 0-.4.1-.5.1l-.2-1.5c1.6 0 3.2-.3 4.7-.5m-2.8 3.9c.4-.1.8-.1 1.2-.2-.3-.6-.5-1.1-.8-1.7-.1.6-.2 1.2-.4 1.9m3.3-4.5-.6.1c-1.5.2-3.1.5-4.6.7-.2 0-.4.1-.6.1 0 .2.1.4.1.5l.2 1.5c0 .2.1.4.1.5h.3l-.5 2.3h-.1c-.2 0-.4.1-.6.1 0 .2.1.4.1.5l.2 1.5c0 .2.1.4.1.5.2 0 .4-.1.6-.1l2.6-.4c.2 0 .4-.1.6-.1.2 0 .4-.1.5-.1 1.1-.2 2.3-.3 3.4-.5l.6-.1-.1-.5c-.1-.5-.2-1-.2-1.5l-.1-.5c-.2 0-.4.1-.6.1h-.1l-1.2-2.1h.3l-.1-.6c-.1-.5-.2-1-.2-1.5-.1-.1-.1-.3-.1-.4zm10.1-1.2.3 1.5c-.2 0-.4.1-.6.1.3 1.6.6 3.3.9 4.9-.7.1-1.4.3-2.1.4-1.1-1.1-2.3-2.2-3.4-3.4.1.7.2 1.5.4 2.2.2 0 .4-.1.6-.1l.3 1.5c-.9.2-1.8.3-2.7.4-.1-.5-.2-1-.2-1.5.2 0 .4-.1.6-.1l-.6-3.3-.6.1c-.1-.5-.2-1-.2-1.5 1-.2 2-.3 3-.5l2.9 2.9-.3-1.8c-.2 0-.4.1-.5.1l-.3-1.5c.8-.1 1.7-.3 2.5-.4m.5-.7c-.2 0-.4.1-.5.1l-2.6.5c-.2 0-.4.1-.5.1 0 .2.1.4.1.5l.1.8-1-1-.2-.2c-.1 0-.2 0-.3.1-1 .2-2 .3-3 .5l-.6.1.1.5c.1.5.2 1 .2 1.5l.1.5.6-.1.4 2.2-.6.1.1.5c.1.5.2 1 .2 1.5l.1.5.6-.1c.9-.1 1.8-.3 2.7-.5.2 0 .4-.1.6-.1 0-.2-.1-.4-.1-.5l-.2-1.2 1.4 1.4.2.2c.1 0 .2 0 .3-.1.7-.1 1.4-.3 2.1-.4.2 0 .4-.1.6-.1 0-.2-.1-.4-.1-.5-.3-1.4-.6-2.9-.8-4.3.2 0 .4-.1.6-.1 0-.2-.1-.4-.1-.5l-.3-1.5c-.2 0-.2-.2-.2-.4zM79.6 102.7c.8.1 1.5.4 1.9.9l.1-.4c.6.1 1.1.2 1.7.3-.1.8-.2 1.5-.3 2.3l-1.8-.3c-.1-.6-.5-1-1.1-1.1-.7-.1-1.2.3-1.4 1.5-.2 1.2.1 1.8.9 2 .7.1 1.2-.3 1.6-1.2l1.8.9c-.5 1.2-1.6 2.1-3.9 1.7-3.3-.5-3.8-2.6-3.6-3.9.3-1.9 2.1-3 4.1-2.7m.1-.5c-2.3-.4-4.3.9-4.7 3.1-.3 1.7.6 4 4 4.5 2.8.4 4-.9 4.5-2.1.1-.2.1-.3.2-.5-.2-.1-.3-.1-.5-.2l-1.8-.9c-.1-.1-.3-.1-.4-.2h.1l1.8.3c.2 0 .4.1.6.1 0-.2.1-.4.1-.5l.3-2.3c0-.2.1-.4.1-.5-.2 0-.4-.1-.5-.1-.6-.1-1.1-.2-1.7-.3l-.6-.1v.1c-.5-.2-1-.4-1.5-.4zm0 5.1c-.3 0-.7-.1-.5-1.3.2-1.2.6-1.1.8-1.1.3 0 .5.3.6.6 0 .1.1.3.1.4h.1c-.1.2-.1.4-.2.5-.3 1-.7.9-.9.9zm12.8-2.7c-.1.7-.1 1.3-.2 2-.6-.1-1.3-.1-1.9-.2l.1-.5c-.5-.1-1.1-.1-1.6-.2l-.1 1 1.4.2c-.1.4-.1.8-.2 1.3l-1.4-.2c0 .3-.1.7-.1 1l1.7.2.1-.5c.6.1 1.3.1 1.9.2-.1.7-.2 1.3-.2 2-2.3-.3-4.7-.6-7-.9l.2-1.5c.2 0 .4.1.6.1.2-1.1.3-2.2.4-3.3-.2 0-.4-.1-.6-.1l.2-1.5c2.1.4 4.4.7 6.7.9m.6-.5-.6-.1c-2.3-.3-4.6-.6-6.8-.9-.2 0-.4-.1-.6-.1 0 .2-.1.4-.1.5l-.2 1.5c0 .2-.1.4-.1.5.2 0 .4.1.6.1l-.3 2.1c-.2 0-.4-.1-.6-.1 0 .2-.1.4-.1.6l-.2 1.5c0 .2-.1.4-.1.6.2 0 .4.1.6.1 2.3.3 4.7.6 7 .9l.6.1.1-.5c.1-.7.1-1.3.2-2l.1-.5-.6-.1-1.6-.2c.1-.4.1-.8.1-1.2l1.5.2.6.1.1-.5c.1-.7.2-1.3.2-2 .2-.2.2-.4.2-.6zm5.7 1.2c-.1.5-.1 1-.1 1.5l-.7-.1-.3 3.3c.6.1 1.1.1 1.7.2l.1-1 1.7.1-.2 2.5c-2.3-.2-4.7-.4-7-.7.1-.5.1-1 .2-1.5.2 0 .4.1.7.1l.3-3.3c-.2 0-.4-.1-.6-.1 0-.5.1-1 .2-1.5 1.2.2 2.6.3 4 .5m.6-.5c-.2 0-.4 0-.6-.1-1.4-.1-2.7-.3-4.1-.4l-.6-.1-.1.6c-.1.5-.1 1-.2 1.5l-.1.5.6.1h.1c-.1.7-.2 1.4-.2 2.2h-.1l-.6-.1-.1.5c-.1.5-.1 1-.2 1.5l-.1.5.6.1c2.3.2 4.7.5 7 .7.2 0 .4 0 .6.1 0-.2 0-.4.1-.6.1-.8.1-1.7.2-2.5 0-.2 0-.4.1-.5-.2 0-.4 0-.6-.1l-1.7-.1c-.2 0-.4 0-.6-.1 0 .2 0 .4-.1.6v.5c-.2 0-.4 0-.6-.1.1-.7.1-1.4.2-2.2h.1c.2 0 .4 0 .6.1 0-.2 0-.4.1-.5.1-.5.1-1 .1-1.5.1-.3.1-.5.2-.6zm10.8 1.3c0 .7-.1 1.3-.1 2-.6 0-1.3-.1-1.9-.1v-.5c-.5 0-1.1-.1-1.6-.1l-.1 1 1.4.1c0 .4-.1.9-.1 1.3l-1.4-.1c0 .3 0 .7-.1 1 .5 0 1.1.1 1.7.1v-.5c.6 0 1.3.1 1.9.1 0 .7-.1 1.3-.1 2-2.3-.1-4.7-.3-7-.5l.1-1.5h.6c.1-1.1.2-2.2.2-3.3h-.6l.1-1.5c2.4.2 4.7.4 7 .5m.6-.5h-.6c-2.3-.1-4.6-.3-6.9-.4h-.6v.6l-.1 1.5v.6h.6c-.1.7-.1 1.4-.2 2.2h-.6v.5l-.1 1.5v.6h.6c2.3.2 4.7.3 7 .5h.6v-.6c0-.7.1-1.3.1-2v-.6h-.6l-1.6-.1c0-.4.1-.8.1-1.2l1.6.1h.6v-.6c0-.7.1-1.3.1-2v-.6zm6.8.8c2.1.1 2.8.9 2.8 1.7 0 .6-.5 1.1-1.4 1.3 1 .2 1.6.9 1.6 1.6 0 .8-.7 1.8-3.3 1.7-1.7-.1-3.4-.1-5.1-.2 0-.5.1-1 .1-1.5h.6c.1-1.1.1-2.2.1-3.3h-.6c0-.5.1-1 .1-1.5 1.7.1 3.4.2 5.1.2m-1.8 2.5h.7c.7 0 1-.1 1-.5s-.2-.6-.9-.6h-.7c-.1.3-.1.7-.1 1.1m-.1 2.4h.6c.8 0 1.1-.1 1.1-.6 0-.4-.2-.6-1-.7h-.8c.2.4.1.9.1 1.3m1.9-5.5c-1.7-.1-3.4-.1-5.1-.2h-.6v.6c0 .5-.1 1-.1 1.5v.6h.7c0 .7-.1 1.4-.1 2.2h-.7v.6c0 .5 0 1-.1 1.5v.6h.6c1.7.1 3.4.1 5.1.2 3.5.1 3.9-1.5 3.9-2.2 0-.6-.3-1.2-.8-1.6.4-.3.6-.8.6-1.3-.1-.9-.4-2.4-3.4-2.5zm-1.2 2.5h.4c-.1 0-.2.1-.4 0zm-.1 2.3h.2c.3 0 .4.1.4.1-.1 0-.2.1-.6 0h-.1l.1-.1zm10.4-4.1c2 0 2.8.1 3.4.6.4.4.6.8.6 1.2 0 .6-.4 1.2-1 1.5.3.5.7.9 1 1.4h.5v1.5h-2.7c-.5-.8-1.1-1.7-1.6-2.6h-.9v1.1h.5v1.5h-4v-1.5h.6v-3.3h-.6v-1.5c1.6.1 2.9.1 4.2.1m-.6 2.6h.8c.6 0 .9-.2.9-.6 0-.4-.3-.6-.9-.6h-.8v1.2m.6-3.1h-4.6v2.7h.6v2.2h-.6v2.7H127.3V111.9c.3.5.6.9.9 1.4.1.1.1.2.2.3h3.6v-2.7h-1c-.2-.2-.3-.5-.5-.7.5-.4.8-1 .8-1.7 0-.6-.3-1.2-.8-1.6-.8-.9-1.8-1-3.8-.9zm0 2.5h.5s-.1 0-.3.1l-.2-.1zm12.5-2.3c0 .5.1 1 .1 1.5h-.6c.5 1.1 1 2.1 1.5 3.2h.5c0 .5.1 1 .1 1.5-1.3.1-2.6.1-3.9.2v-1.4h.6c-.1-.3-.2-.5-.3-.8-.6 0-1.2.1-1.9.1-.1.3-.2.5-.3.8h.6c0 .5 0 .9.1 1.4-1 0-1.9.1-2.9.1v-1.5h.6c.4-1.1.9-2.2 1.3-3.3h-.6v-1.5c1.6-.2 3.3-.2 5.1-.3m-3.6 3.5c.4 0 .9 0 1.3-.1-.2-.6-.4-1.1-.7-1.7l-.6 1.8m4.1-4.1h-.6c-1.7.1-3.5.1-5.2.2h-.6v2.7h.3c-.3.7-.6 1.5-.9 2.2h-.8v2.7h.6c1 0 1.9-.1 2.9-.1h.6v-.6c0-.5 0-.9-.1-1.4v-.2h.1v.2c0 .5 0 .9.1 1.4v.6h.6c1.3-.1 2.6-.1 3.9-.2h.6v-.6c0-.5-.1-1-.1-1.5v-.6h-.8c-.4-.7-.7-1.4-1-2.1h.3v-.6c0-.5-.1-1-.1-1.5.2-.2.2-.4.2-.6zm9.1 0 .2 2.6c-.5 0-.9.1-1.4.1l-.1-1.1-.8.1.2 3.3c.2 0 .4 0 .6-.1 0 .5.1 1 .1 1.5l-4.2.3-.1-1.5h.6c-.1-1.1-.1-2.2-.2-3.3-.3 0-.6 0-.8.1 0 .4.1.8.1 1.1-.5 0-.9.1-1.4.1l-.1-2.7c2.6-.2 5-.3 7.3-.5m.6-.6c-.2 0-.4 0-.6.1-2.4.2-4.8.4-7.2.5h-.6v.6c.1.9.1 1.8.1 2.7v.6h.6c.5 0 .9-.1 1.4-.1h.3l.1 1h-.7v.6l.1 1.5v.6h.6l4.2-.3h.6v-.6c0-.5-.1-1-.1-1.5v-.6h-.7c0-.3-.1-.7-.1-1h.3c.5 0 .9-.1 1.4-.1.2 0 .4 0 .6-.1 0-.2 0-.4-.1-.6-.1-.9-.1-1.8-.2-2.6v-.7zm5.5.1.1 1.5c-.2 0-.4 0-.7.1l.3 3.3c.2 0 .4 0 .7-.1l.1 1.5c-1.4.1-2.8.3-4.2.4 0-.5-.1-1-.1-1.5l.7-.1-.3-3.3-.7.1c0-.5-.1-1-.1-1.5 1.5-.2 2.8-.3 4.2-.4m.5-.7-.6.1c-1.4.1-2.7.3-4.1.4h-.6c0 .2 0 .4.1.6 0 .5.1 1 .1 1.5 0 .2 0 .4.1.5.2 0 .4 0 .6-.1h.1c.1.7.1 1.4.2 2.2h-.1c-.2 0-.4 0-.6.1 0 .2 0 .4.1.5 0 .5.1 1 .1 1.5 0 .2 0 .4.1.5.2 0 .4 0 .6-.1 1.4-.1 2.8-.2 4.2-.4l.6-.1-.1-.5-.1-1.5-.1-.6-.6.1h-.1c-.1-.7-.1-1.4-.2-2.2h.1l.6-.1-.1-.5-.1-1.5c-.1 0-.2-.2-.2-.4zm5.6-.2c2.8-.3 4.3 1.2 4.5 2.7.2 1.5-.8 3.4-3.7 3.8-2.9.4-4.3-1.3-4.5-2.8-.1-1.4.9-3.3 3.7-3.7m.6 5.1c.8-.1.9-.7.7-1.9s-.4-1.8-1.2-1.7c-.8.1-.9.7-.7 1.9.2 1.2.5 1.8 1.2 1.7m-.7-5.6c-3 .4-4.4 2.4-4.2 4.3.2 1.9 2 3.6 5.1 3.3 3.1-.4 4.5-2.5 4.2-4.4-.2-1.9-2-3.6-5.1-3.2zm.7 5c-.2 0-.4.1-.5-1.2-.1-1.2.1-1.3.2-1.3.2 0 .4-.1.5 1.2.1 1.3-.1 1.3-.2 1.3zm13.8-6.4.3 1.5c-.2 0-.4.1-.6.1.3 1.6.5 3.2.8 4.8-.8.1-1.6.3-2.4.4l-3.6-3.3.3 2.2c.2 0 .4-.1.6-.1.1.5.1 1 .2 1.5l-3 .4c-.1-.5-.1-1-.2-1.5l.6-.1c-.2-1.1-.3-2.2-.5-3.2l-.6.1-.2-1.5c1.1-.2 2.3-.3 3.4-.5 1 .9 2.1 1.9 3.1 2.8l-.3-1.8c-.2 0-.4.1-.6.1l-.2-1.5c1-.1 2-.3 2.9-.4m.5-.7c-.2 0-.4.1-.5.1-1 .2-1.9.3-2.9.5l-.6.1.1.5.1 1c-.4-.4-.8-.7-1.2-1.1l-.2-.2h-.3c-1.1.2-2.3.3-3.4.5-.2 0-.4.1-.6.1 0 .2.1.4.1.5l.2 1.5c0 .2.1.4.1.5.2 0 .4-.1.6-.1h.1l.3 2.1h-.1c-.2 0-.4.1-.6.1 0 .2.1.4.1.6l.2 1.5c0 .2.1.4.1.6.2 0 .4-.1.6-.1 1-.1 2-.3 3-.4l.6-.1-.1-.6c-.1-.4-.1-.9-.2-1.3.6.5 1.1 1 1.7 1.5l.2.2h.3c.8-.1 1.6-.3 2.4-.4.2 0 .4-.1.6-.1l-.1-.6c-.2-1.4-.5-2.9-.7-4.3h.1c.2 0 .4-.1.6-.1 0-.2-.1-.4-.1-.5l-.3-1.5c-.1-.1-.2-.3-.2-.5z"/></g></svg>